# vtk DataFile Version 4.2
vtk output
ASCII
DATASET POLYDATA
POINTS 80 float
78.3354 136.497 30.8805 78.3192 136.519 30.8616 78.3192 136.519 30.8616 
77.9375 137.03 30.4168 77.7157 137.365 29.9763 77.6067 137.486 29.8402 
77.4408 137.704 29.6844 77.3711 137.79 29.6182 77.0635 138.176 29.2115 
76.9234 138.364 28.9349 76.9234 138.364 28.9349 76.8634 138.445 28.8163 
76.8572 138.459 28.7948 76.8572 138.459 28.7948 76.4425 139.134 28.1533 
76.3222 139.304 27.9874 76.1964 139.441 27.8775 75.8572 139.951 27.3587 
75.8064 140.007 27.3019 75.7307 140.106 27.2018 75.6132 140.341 27.019 
75.5597 140.452 26.9147 75.499 140.583 26.7733 75.4625 140.644 26.7002 
75.3124 140.963 26.3852 74.9737 141.498 25.8282 74.6274 141.946 25.3437 
74.6254 141.948 25.3409 74.4662 142.097 25.1146 74.3494 142.231 24.959 
74.3481 142.233 24.9567 74.1177 142.668 24.4744 73.6754 143.235 23.8467 
73.4652 143.458 23.5558 73.3687 143.505 23.4381 73.1842 143.654 23.1658 
73.1677 143.675 23.1384 72.891 144.075 22.5133 72.5816 144.31 22.1365 
72.3511 144.54 21.6624 72.3091 144.584 21.5571 72.1345 144.676 21.3379 
71.9538 144.765 21.0767 71.7725 144.94 20.6478 71.4963 144.997 20.12 
78.3354 136.497 30.8805 78.3383 136.469 30.9012 78.3383 136.469 30.9012 
78.3679 136.183 31.1156 78.378 136.117 31.1567 78.378 136.117 31.1567 
78.6068 135.417 31.6956 78.6801 135.286 31.7893 78.7783 135.061 31.9559 
78.9309 134.797 32.0848 79.0073 134.69 32.1625 79.0211 134.667 32.1816 
79.4316 134.215 32.5663 79.4316 134.215 32.5663 79.4511 134.194 32.5846 
79.6037 133.974 32.7754 79.6803 133.874 32.8585 79.8456 133.697 32.9652 
80.1181 133.45 33.19 80.2647 133.316 33.3574 80.3505 133.242 33.4313 
80.6154 133.058 33.5795 80.8415 132.939 33.7008 81.3163 132.672 34.064 
82.1368 132.258 34.2598 82.3554 132.147 34.372 82.8214 131.907 34.5229 
82.8751 131.874 34.5589 83.3168 131.623 34.7624 83.7549 131.431 34.8837 
83.8996 131.348 34.9491 84.5763 131.116 35.0624 84.618 131.106 35.0568 
84.6804 131.091 35.0431 84.7114 131.082 35.0408 
LINES 6 86
2 0 1 
8 2 3 4 5 6 7 8 9 
35 10 11 12 13 14 15 16 17 18 19 20 21 22 23 24 25 26 27 28 29 30 31 32 33 34 35 36 37 38 39 40 41 42 43 44 
2 45 46 
11 47 48 49 50 51 52 53 54 55 56 57 
22 58 59 60 61 62 63 64 65 66 67 68 69 70 71 72 73 74 75 76 77 78 79 

CELL_DATA 6
FIELD FieldData 4
Blanking 1 6 int
0 1 0 0 1 0 
CenterlineIds 1 6 int
0 0 0 1 1 1 
TractIds 1 6 int
0 1 2 0 1 2 
GroupIds 1 6 int
0 1 2 0 1 3 
POINT_DATA 80
FIELD FieldData 3
EdgeArray 2 80 double
571 571 587.24329 581.54389 587.24329 581.54389 970 830 970 
943 943 959 976 959 975 975 897 972 
857.1 879.6 857.1 879.6 840 840 786 786 786 
786 567 727 818 815 862 816 788 667 
788 793 680 680 681 713 711 711 709 
711 710 710 493 493 742 742 746 608 
699 699 698 699 698 633 558 558 474 
474 534 534 581 586 509 509 509 505 
508 505 426 460 459 254 254 409 408 
409 405 405 306 306 241 262 78 78 
571 571 609.2321793 609.2321793 609.2321793 609.2321793 1005 1005 1009 
1009 1009 1009 1012 1012 1012 1052 1073 1073 
1124 1124 1123 1083 1083 1000 1054.3636364 1050.5909091 1054.3636364 
1050.5909091 1053 1053 1163 1072 1163 1165 1056 1165 
1088 1342 1088 1408 1071 1407 641 1407 1161 
1161 1201 1201 1336 1298 1444 1444 1210 1443 
1210 1460 1222 1583 1585 1355 1450 1484 1466 
1488 1570 1488 1570 1526 1171 1171 
EdgePCoordArray 1 80 double
0 0.00797916 0.00797916 0.196 0.856 0.88 0.276 0 0.076 
0.0228 0.0228 0 0 0 0.644 0.76 0.852 0.028 
0.388 0 0.82 0 0.204 0 0 0 0.98 
0 0.304 0.988 0 0 0 0.232 0 0.924 
0.972 0.268 0.724 0.68 0.816 0 0 0.368 0 
0 0 0 0 0 0 0 0.656 0 
0 0.644 0.032 0.0014545454545 0.0014545454545 0 0.428 0.588 0.536 
0.112 0.684 0.908 0.328 0 0 0.976 0 0.272 
0.112 0.5 0.364 0.668 0.52 0.352 0.82 0 
MaximumInscribedSphereRadius 1 80 double
3.0132201681 3.0111237561 3.0111237561 2.9617239258 2.9398469639 2.9140204709 2.8781433104 2.863918918 2.8198920355 
2.8059710866 2.8059710866 2.8000049656 2.7979235389 2.7979235389 2.6934223725 2.706220479 2.7056374965 2.6897714917 
2.6930333106 2.6891127038 2.6721942558 2.6618360364 2.6564644628 2.6508696026 2.6229936093 2.6638139597 2.6893628976 
2.6889971704 2.6579046985 2.6336285626 2.6331269397 2.5867403739 2.6922329615 2.6651729641 2.6287425118 2.5578088556 
2.550875497 2.4713763686 2.4505476137 2.407646713 2.3980437876 2.340543821 2.280849414 2.1781523055 2.0373095674 
3.0132201681 3.007905059 3.007905059 2.9528846762 2.9409522102 2.9409522102 2.890834576 2.8869104411 2.874675892 
2.8070352797 2.7881017874 2.782311437 2.6313493461 2.6313493461 2.6241606751 2.5866982873 2.5678436032 2.5316765412 
2.4658018405 2.4415600627 2.4183238853 2.3608053916 2.3129532034 2.2097692956 2.0709860523 2.0582990565 2.0485948552 
2.0455455281 2.0055417101 2.0009375375 2.0050264998 1.9729527046 1.9678306307 1.9557214509 1.946081956 
