# vtk DataFile Version 4.2
vtk output
ASCII
DATASET POLYDATA
POINTS 179 float
-53.3182 99.244 -7.5987 -51.4202 106.312 -4.12445 -49.8391 108.718 -2.4433 
-48.1262 111.311 -0.812588 -44.5527 116.517 1.70514 -40.5043 122.503 4.38764 
-36.3717 126.29 6.03041 -33.5139 129.126 6.71536 -29.9772 132.176 7.99225 
-24.1604 136.353 8.83037 -21.5719 138.181 9.21134 -18.7369 140.675 8.66544 
-15.9877 142.503 7.14325 -5.83559 147.631 1.23636 -0.728333 148.707 -2.63265 
2.59129 149.371 -4.29769 12.7247 152.987 -10.4631 17.5047 152.562 -13.4304 
21.154 152.865 -13.1522 26.3775 153.378 -11.1298 28.3907 153.47 -8.02264 
29.4853 153.327 -3.55915 29.7058 153.122 -1.42588 29.368 152.358 1.71975 
28.4615 151.589 4.02141 26.8341 149.592 6.74503 24.3902 147.227 9.78236 
23.1011 146.154 11.469 20.8534 143.785 13.4879 19.4142 142.134 15.2995 
17.4708 139.79 17.8626 15.6406 137.82 20.7871 14.1842 135.842 23.6352 
12.8794 133.924 26.7905 12.1968 132.719 30.8046 10.4338 132.495 34.5869 
9.42343 133.064 36.7658 8.72316 134.5 39.9529 8.15218 136.198 42.5489 
8.16051 138.099 45.0165 8.09352 139.776 46.891 7.80943 142.65 49.4171 
7.10147 144.269 51.2741 6.19002 146.433 52.8966 4.47432 149.249 55.4652 
2.87834 150.977 57.1933 1.70926 152.24 58.4994 0.880463 154.247 61.301 
2.23883 155.42 64.1761 4.2245 155.781 65.7357 6.68828 155.697 67.1155 
8.77814 155.608 68.2018 10.8054 155.57 69.1725 13.5737 155.438 70.4383 
15.2996 155.405 71.5416 17.6959 155.408 73.2208 20.6513 155.365 75.5678 
22.4585 155.633 77.4484 23.9702 156.01 79.4274 25.8081 156.564 81.9528 
27.0225 157.437 84.0327 28.014 158.178 86.4131 28.6971 159.396 89.5379 
29.1762 160.214 91.5559 29.681 161.382 94.2085 29.9012 162.69 96.4856 
29.8813 163.648 98.6345 29.9125 164.975 100.792 29.5924 166.494 103.758 
29.5577 167.581 105.8 29.6792 168.594 108.291 29.8669 170.013 112.249 
30.536 170.19 114.602 31.86 169.952 117.033 33.0211 169.095 119.473 
33.8505 168.391 122.022 33.881 168.271 124.921 33.7674 168.693 128.281 
33.7438 169.33 130.577 33.314 170.346 133.572 33.1876 170.706 135.774 
33.0705 171.613 137.982 32.9524 172.388 140.609 32.8702 173.134 142.745 
33.0113 173.968 145.514 33.3681 173.895 148.308 33.5437 174.437 151.154 
33.3573 175.349 153.137 32.2313 177.212 153.742 30.4167 178.989 153.29 
28.6159 180.363 151.984 27.1065 181.121 149.553 26.3154 181.755 146.176 
26.0294 181.695 144.016 26.1855 181.883 140.806 26.2342 181.674 138.664 
25.192 179.34 137.313 23.893 177.506 138.616 23.6606 176.849 140.669 
23.6503 176.329 142.94 23.8081 176.308 145.139 24.4394 176.248 147.782 
25.021 176.051 150.015 25.6347 176.433 152.321 26.1741 176.592 154.818 
26.547 176.839 157.279 27.2159 177.331 159.746 28.7484 177.851 161.804 
30.5846 177.641 163.373 32.6045 177.096 164.319 34.5942 176.382 165.4 
36.3034 176.072 167.299 37.5111 176.405 169.538 37.5902 177.668 171.171 
36.7965 179.064 172.562 34.9535 180.531 173.196 32.8823 181.851 174.031 
30.2477 183.184 174.116 28.088 184.309 173.925 25.8515 185.663 173.892 
23.3988 187.447 174.287 21.8119 188.951 174.833 20.2261 190.436 175.458 
18.5513 191.966 176.662 17.1726 193.027 178.254 16.0473 194.181 180.584 
15.5232 194.572 182.815 15.0577 194.578 185.665 13.9691 195.159 187.956 
13.4422 197.846 188.809 13.8554 199.513 187.708 14.7028 200.524 185.95 
16.2782 202.142 184.786 17.5055 203.973 184.89 17.844 205.561 186.729 
16.5413 205.103 190.053 15.6413 204.186 191.989 15.3135 202.548 193.621 
15.7891 200.653 195.021 16.8824 198.972 195.872 18.524 197.11 195.852 
20.2496 195.975 195.885 23.3701 194.746 196.334 24.9832 194.637 197.833 
25.1092 194.656 200.067 24.1381 195.232 202.063 22.4476 196.009 203.146 
20.0974 197.034 203.488 18.165 197.881 203.655 16.0728 199.072 203.65 
13.9411 200.488 203.363 11.9772 202.19 203.173 10.2235 203.32 203.522 
9.7076 203.696 205.452 11.4231 204.069 207.467 13.2612 204.851 208.524 
14.7151 205.895 209.394 16.0765 207.562 210.522 16.6986 209.322 211.238 
16.9026 211.673 212.122 16.6421 213.961 212.864 15.6811 215.71 213.399 
14.9195 218.595 214.582 14.449 220.748 215.212 13.8554 223.223 215.649 
13.4411 225.787 216.155 13.4661 228.721 217.203 15.1432 230.146 219.243 
16.7533 229.502 221.312 17.9104 228.607 223.318 18.3455 227.192 225.423 
18.5915 225.115 226.707 18.3501 223.088 227.175 18.2967 220.164 227.314 
17.6482 217.533 227.382 16.8315 215.315 227.982 16.2927 213.14 228.17 
15.381 211.288 228.567 15.4719 208.205 229.499 
LINES 1 180
179 0 1 2 3 4 5 6 7 8 9 10 11 12 13 14 15 16 17 18 19 20 21 22 23 24 25 26 27 28 29 30 31 32 33 34 35 36 37 38 39 40 41 42 43 44 45 46 47 48 49 50 51 52 53 54 55 56 57 58 59 60 61 62 63 64 65 66 67 68 69 70 71 72 73 74 75 76 77 78 79 80 81 82 83 84 85 86 87 88 89 90 91 92 93 94 95 96 97 98 99 100 101 102 103 104 105 106 107 108 109 110 111 112 113 114 115 116 117 118 119 120 121 122 123 124 125 126 127 128 129 130 131 132 133 134 135 136 137 138 139 140 141 142 143 144 145 146 147 148 149 150 151 152 153 154 155 156 157 158 159 160 161 162 163 164 165 166 167 168 169 170 171 172 173 174 175 176 177 178 

POINT_DATA 179
FIELD FieldData 1
attention_weight 1 179 float
0.5 0.312851 0.306563 0.272002 0.304804 0.270993 0.25057 0.250176 0.252141 
0.248174 0.249718 0.25042 0.289164 0.333333 0.335563 0.361187 0.25 0.249683 
0.220219 0.209605 0.178093 0.172801 0.16559 0.166518 0.165603 0.166395 0.167054 
0.187989 0.193869 0.179566 0.19164 0.193044 0.198977 0.200127 0.177237 0.172813 
0.166832 0.153615 0.148883 0.146924 0.142536 0.142625 0.142642 0.142239 0.143348 
0.132532 0.139862 0.14029 0.129887 0.129229 0.127382 0.135163 0.126706 0.138004 
0.130034 0.137092 0.140892 0.139839 0.142641 0.14282 0.142425 0.143194 0.142445 
0.142778 0.142624 0.142648 0.142866 0.143083 0.143111 0.143124 0.142839 0.142483 
0.142534 0.143305 0.142545 0.142499 0.142961 0.142571 0.142529 0.131442 0.140297 
0.140281 0.140712 0.115203 0.0890019 0.0837628 0.0742225 0.0765236 0.0657498 0.0656843 
0.0647946 0.0622896 0.0656266 0.0695571 0.0840344 0.0995989 0.0997916 0.0951902 0.0916595 
0.0807462 0.0768384 0.0676603 0.0657918 0.0639764 0.0638965 0.0639864 0.072698 0.084299 
0.0879527 0.0898246 0.0978211 0.099641 0.105869 0.106963 0.106892 0.10266 0.109259 
0.117267 0.129484 0.135567 0.128783 0.129284 0.12694 0.134631 0.126818 0.0983752 
0.0950506 0.0991779 0.0797273 0.065283 0.0681438 0.0739237 0.076801 0.0791341 0.0853994 
0.0827684 0.0802983 0.0757096 0.067381 0.0618894 0.0599624 0.0673223 0.0796507 0.0872621 
0.0974112 0.0930566 0.0839157 0.0815249 0.0719925 0.066854 0.0687641 0.0710234 0.0916971 
0.0977841 0.0865123 0.0835844 0.0858726 0.0946832 0.107109 0.105164 0.114925 0.12029 
0.133182 0.12527 0.127521 0.127573 0.125178 0.125186 0.117247 0.115452 0.113895 
0.119551 0.119513 0.114655 0.114494 0.131135 0.144687 0.144858 0.158443 
