# vtk DataFile Version 4.2
vtk output
ASCII
DATASET POLYDATA
POINTS 33 float
77.484 133.162 30.6138 77.6732 133.435 30.779 77.746 133.538 30.836 
77.8189 133.628 30.8924 77.9223 133.73 30.9534 78.0718 133.862 31.0038 
78.2491 134.021 31.083 78.562 134.412 31.3038 78.9772 135.115 31.7642 
79.1015 135.358 31.7005 79.1015 135.358 31.7005 77.3343 137.752 29.6699 
76.6092 138.88 28.447 75.9611 139.968 27.4849 75.3891 140.877 26.5082 
74.8519 141.794 25.6356 74.2689 142.561 24.766 73.6798 143.279 23.825 
73.0723 143.892 22.8913 72.3255 144.554 21.8049 71.4087 145.139 20.3715 
70.345 145.798 18.6915 69.2714 146.21 17.3287 68.0221 146.368 16.6066 
67.1051 146.477 15.9121 79.1015 135.358 31.7005 81.4146 132.797 34.0708 
82.8174 132.063 34.5944 84.2918 131.356 34.9783 85.5334 130.772 35.0846 
87.0019 130.282 35.0807 88.4525 129.864 34.9161 89.6941 129.61 34.4437 

LINES 3 36
10 0 1 2 3 4 5 6 7 8 9 
15 10 11 12 13 14 15 16 17 18 19 20 21 22 23 24 
8 25 26 27 28 29 30 31 32 

CELL_DATA 3
FIELD FieldData 1
Topology 2 3 vtkIdType
0 1 1 -1 1 -1 
POINT_DATA 33
FIELD FieldData 1
MaximumInscribedSphereRadius 1 33 double
0 2.1467454743 2.3480330357 2.5034929806 2.628740598 2.7391382187 2.9110010726 3.167928237 3.3415975761 
3.3415975761 2.9092904381 2.9092904381 2.8491106624 2.7575053302 2.7204555444 2.6910855428 2.6731875838 2.672676708 
2.6388389084 2.5634548888 2.3959354917 2.0592707458 1.5540342955 1.0861099336 0.59832151761 2.402456866 2.402456866 
2.2451675554 2.1098425041 1.9399357623 1.7987760515 1.5499539139 1.0837721674 
