# vtk DataFile Version 4.2
vtk output
ASCII
DATASET POLYDATA
POINTS 401 float
-22.3325 158.97 126.088 -22.3785 159.178 126.27 -22.3875 159.294 126.36 
-22.3783 159.386 126.463 -22.3573 159.464 126.591 -22.3681 159.599 126.759 
-22.3424 159.832 127.117 -22.2957 159.981 127.372 -22.2957 159.981 127.372 
-21.2983 160.936 126.816 -20.5048 161.426 127.09 -19.9369 161.799 127.411 
-19.2768 161.919 127.823 -18.726 162.009 128.258 -18.2279 162.081 128.604 
-17.6815 162.079 128.97 -16.9798 162.013 129.253 -16.3929 161.992 129.555 
-15.9166 162.016 129.82 -15.5185 162.057 130.075 -15.1354 162.079 130.366 
-14.5706 162.069 130.691 -13.9389 162.1 131.036 -13.269 162.114 131.336 
-12.5047 162.146 131.761 -11.7098 162.183 132.239 -10.7933 162.295 132.706 
-9.72487 162.815 133.176 -9.04321 162.813 133.664 -22.2957 159.981 127.372 
-23.254 159.174 128.208 -23.4452 158.932 128.945 -23.4725 159.044 129.816 
-23.4479 159.202 130.403 -23.2255 159.491 130.941 -23.0525 159.779 131.365 
-22.8825 160.226 131.813 -22.581 160.783 132.199 -22.2948 161.244 132.48 
-21.9395 161.752 132.763 -21.5179 162.366 133.044 -20.9474 163.114 133.218 
-20.5106 163.77 133.364 -20.1729 164.314 133.451 -19.8387 164.886 133.566 
-19.5827 165.351 133.714 -19.307 165.792 133.964 -19.0604 166.389 134.52 
-18.7402 166.929 135.162 -18.4458 167.219 135.791 -18.1615 167.62 136.48 
-18.0264 168.001 137.227 -17.791 168.159 137.962 -17.5681 168.184 138.733 
-17.3334 168.223 139.456 -17.0619 168.297 140.168 -16.9543 168.381 141.093 
-16.844 168.418 141.955 -16.8317 168.439 142.53 -16.8084 168.383 143.066 
-16.8195 168.297 143.546 -16.8285 168.275 144.201 -16.8951 168.172 144.943 
-17.0901 168.049 145.604 -17.3675 167.868 146.191 -17.8229 167.625 146.817 
-18.3065 167.415 147.448 -18.8505 167.268 148.073 -19.6655 167.015 148.581 
-20.3393 166.8 148.854 -20.9387 166.524 149.114 -21.5086 166.325 149.252 
-22.0911 165.974 149.388 -22.6433 165.647 149.524 -23.264 165.076 149.661 
-23.7916 164.473 149.768 -24.2504 163.931 149.883 -24.6207 163.445 149.988 
-24.9384 162.994 150.048 -25.2253 162.498 150.107 -25.5776 161.873 150.178 
-25.8686 160.977 150.256 -26.1056 160.021 150.366 -26.2498 159.067 150.43 
-26.2738 157.965 150.531 -26.0789 156.803 150.647 -25.8615 155.861 150.656 
-25.5855 154.945 150.592 -25.2312 153.99 150.432 -24.435 152.884 150.223 
-23.3275 152.023 149.91 -22.3547 151.572 149.658 -21.14 151.263 149.388 
-19.8973 150.938 149.053 -18.8396 150.744 148.785 -17.8652 150.553 148.758 
-16.8648 150.517 148.831 -15.9316 150.563 149.012 -15.117 150.717 149.269 
-14.4654 150.985 149.51 -13.786 151.353 149.862 -13.2172 151.781 150.148 
-12.6564 152.413 150.372 -12.1412 153.2 150.667 -11.6858 154.001 150.987 
-11.3367 154.878 151.366 -10.9902 155.694 151.706 -10.6428 156.496 152.053 
-10.266 157.138 152.418 -9.83643 157.805 152.867 -9.34315 158.481 153.439 
-8.82525 159.092 153.918 -8.31493 159.622 154.372 -7.68866 160.161 154.89 
-7.00248 160.69 155.473 -6.45382 161.15 156.026 -5.93826 161.546 156.474 
-5.44823 161.977 156.934 -4.99766 162.41 157.469 -4.58509 162.818 158.043 
-4.20808 163.19 158.687 -3.85359 163.585 159.209 -3.58305 163.871 159.784 
-3.33662 164.183 160.453 -3.25886 164.608 161.333 -3.29029 164.988 162.194 
-3.37088 165.346 163.039 -3.62398 165.676 163.796 -3.93386 166.134 164.572 
-4.31895 166.508 165.529 -4.67235 166.771 166.219 -5.07715 167.021 166.786 
-5.50434 167.275 167.338 -5.93508 167.564 167.932 -6.37787 167.874 168.494 
-6.85782 168.244 169.045 -7.42225 168.523 169.616 -7.94274 168.793 170.101 
-8.44627 169.07 170.635 -8.94406 169.514 171.197 -9.32442 170.336 171.846 
-9.51784 170.896 172.313 -9.69616 171.365 172.673 -9.72377 171.993 173.12 
-9.75966 172.549 173.53 -9.77326 173.158 173.947 -9.61226 173.875 174.441 
-9.5322 174.363 174.851 -9.40103 174.695 175.149 -9.2125 175.042 175.399 
-8.996 175.373 175.618 -8.8053 175.789 175.837 -8.53339 176.18 176.058 
-8.34634 176.493 176.201 -8.0939 176.807 176.319 -7.84431 177.1 176.451 
-7.57661 177.383 176.587 -7.28783 177.65 176.715 -6.97011 177.97 176.82 
-6.66857 178.266 176.89 -6.35343 178.573 176.947 -5.96166 178.87 177 
-5.55957 179.136 177.021 -5.15299 179.386 177.049 -4.72479 179.633 177.025 
-4.27254 179.83 176.964 -3.67377 180.034 176.884 -3.04084 180.235 176.732 
-2.49712 180.343 176.593 -1.00242 180.416 176.074 -1.00242 180.416 176.074 
0.622563 181.042 176.745 1.68498 181.272 177.002 2.37229 181.501 177.227 
3.08788 181.797 177.482 3.83546 182.068 177.752 4.58015 182.288 178.052 
5.332 182.573 178.406 6.05957 182.782 178.809 6.70779 182.967 179.232 
7.30014 183.173 179.661 7.93807 183.332 180.117 8.55637 183.501 180.568 
9.20731 183.721 181.063 9.8471 184.027 181.661 10.3894 184.428 182.348 
10.7624 184.829 183.018 11.051 185.141 183.572 11.3163 185.341 184.172 
11.5206 185.591 184.644 11.6602 185.768 185.061 11.7676 185.946 185.507 
11.8285 186.195 186.118 11.9168 186.449 186.858 11.9267 186.736 187.523 
11.916 187.014 188.112 11.8851 187.228 188.757 11.8618 187.395 189.442 
11.8304 187.529 190.017 11.7637 187.627 190.542 11.7193 187.771 191.149 
11.5936 187.798 191.834 11.3801 187.827 192.569 11.2092 187.823 193.234 
11.0582 187.809 193.853 10.9495 187.81 194.431 10.7768 187.734 194.996 
10.7501 187.689 195.647 10.7363 187.63 196.062 10.7082 187.579 196.392 
10.6768 187.531 196.665 10.6585 187.453 196.963 10.628 187.373 197.28 
10.6039 187.206 197.741 10.6554 187.45 198.79 13.3888 187.115 199.909 
14.1365 187.023 200.115 14.8448 186.816 200.153 15.716 186.917 200.002 
16.2711 186.909 199.823 16.8471 187.25 199.276 17.2257 187.509 198.741 
17.4614 187.765 198.355 17.6643 187.982 197.924 17.921 188.127 197.437 
18.171 188.232 196.88 18.406 188.25 196.219 18.62 187.872 195.454 
18.755 187.654 194.826 18.9509 187.36 194.119 19.1883 186.984 193.48 
19.3969 186.49 192.955 19.5689 185.964 192.516 19.7624 185.369 192.229 
20.175 184.609 191.958 20.6471 183.803 191.84 21.1114 183.006 191.838 
21.4405 182.377 191.871 21.7321 181.751 191.965 22.0665 181.115 192.145 
22.3668 180.369 192.43 22.6962 179.665 192.659 23.0044 178.937 192.934 
23.2452 178.205 193.24 23.5121 177.497 193.532 23.7059 176.858 193.781 
23.921 176.121 194.06 24.1677 175.127 194.485 24.2201 174.333 194.921 
24.3787 173.658 195.366 24.3922 173.13 195.671 24.4452 172.652 195.938 
24.4584 172.095 196.235 24.4586 171.526 196.587 24.4549 171.003 196.962 
24.4484 170.526 197.322 24.4885 170.171 197.615 24.3446 169.276 198.535 
-1.00242 180.416 176.074 -1.59465 179.473 174.217 -1.71875 179.083 173.66 
-1.81218 178.933 173.104 -1.78558 178.739 172.673 -1.76601 178.554 172.34 
-1.72509 178.445 172.088 -1.67992 178.297 171.839 -1.54207 178.03 171.498 
-1.36041 177.633 171.038 -1.18277 177.397 170.767 -0.963324 177.118 170.491 
-0.625652 176.84 170.16 -0.221138 176.683 169.623 0.20071 176.299 169.29 
0.57799 176.055 169.042 0.978859 175.778 168.836 1.50045 175.578 168.528 
1.84824 175.373 168.339 2.22773 175.206 168.149 2.58507 175.054 167.986 
3.04575 174.796 167.834 3.43581 174.524 167.766 3.88734 174.155 167.674 
4.45326 173.664 167.528 5.0395 173.274 167.372 5.48857 172.982 167.276 
5.9881 172.636 167.196 6.49712 172.224 167.065 6.97091 171.891 166.953 
7.31253 171.574 166.868 7.65024 171.275 166.782 7.96836 170.948 166.681 
8.29265 170.617 166.555 8.59204 170.27 166.395 8.88975 169.915 166.073 
9.16176 169.502 165.792 9.3711 168.973 165.247 9.57442 168.651 164.934 
9.73968 168.313 164.607 9.97512 167.906 164.209 10.1788 167.499 163.794 
10.2849 167.034 163.321 10.3454 166.586 162.81 10.4133 166.233 162.357 
10.4838 165.892 161.99 10.5569 165.569 161.578 10.692 165.268 161.182 
10.9201 164.962 160.735 11.1406 164.642 160.264 11.3402 164.308 159.751 
11.6683 163.874 159.3 11.9978 163.355 158.808 12.3111 162.798 158.288 
12.7175 162.241 157.817 13.0658 161.692 157.478 13.4333 161.175 157.222 
13.8736 160.669 156.956 14.3621 160.132 156.642 14.7378 159.654 156.38 
15.1671 159.145 156.121 15.6296 158.647 155.839 16.0852 158.045 155.5 
16.5797 157.45 155.171 17.1346 156.831 154.846 17.6682 156.288 154.535 
18.1819 155.724 154.283 18.6139 155.281 153.915 18.9962 154.689 153.626 
19.421 154.131 153.402 19.9835 153.592 153.156 20.5056 152.814 152.93 
21.0233 152.07 152.613 21.4163 151.476 152.381 21.846 150.832 152.179 
22.2343 150.06 151.969 22.5817 149.239 151.776 22.6727 147.91 151.532 
24.3446 169.276 198.535 23.3399 168.157 198.495 22.6195 167.689 198.246 
22.0554 167.398 197.815 21.8141 167.2 197.533 21.6128 167.036 197.26 
21.4623 166.859 197.044 21.3351 166.598 196.759 21.0741 166.291 196.463 
20.8648 165.958 196.199 20.8248 165.4 195.905 20.7206 164.871 195.652 
20.6441 164.449 195.475 20.5709 163.967 195.44 20.4811 163.62 195.433 
20.2946 163.191 195.565 20.1614 162.628 195.743 20.045 162.179 195.918 
20.0788 161.786 196.239 20.0754 161.5 196.365 20.0664 161.269 196.508 
20.0594 161.056 196.669 20.0555 160.861 196.813 20.0405 160.658 196.996 
20.023 160.503 197.244 20.0188 160.326 197.424 20.0171 160.228 197.622 
25.0937 165.55 212.39 25.436 165.996 212.197 25.9269 166.419 211.918 
26.272 166.825 211.747 26.4182 167.1 211.594 26.5457 167.329 211.427 
26.6949 167.61 211.19 26.9049 167.925 210.962 27.2785 168.312 210.586 
27.3933 168.96 210.396 27.6463 169.165 210.222 27.8247 169.332 210.049 
27.9436 169.49 209.9 28.036 169.625 209.73 28.1169 169.784 209.553 
28.2179 169.937 209.339 28.3185 170.153 209.02 28.5423 170.303 208.759 
28.6579 170.419 208.546 28.7875 170.525 208.217 28.9341 170.695 207.604 
29.0085 171.16 206.205 28.9711 171.259 205.944 28.8453 171.392 205.614 
28.5829 171.457 204.49 28.4653 171.456 203.813 28.3095 171.282 203.26 
28.0252 171.13 202.92 27.7678 171.055 202.652 27.5018 170.962 202.307 
27.1021 170.943 201.847 26.8362 170.814 201.378 26.5491 170.584 201.017 
26.2376 170.302 200.732 26.0498 170.134 200.482 25.8065 169.889 200.172 
25.5025 169.623 199.769 24.3446 169.276 198.535 
LINES 7 408
8 0 1 2 3 4 5 6 7 
21 8 9 10 11 12 13 14 15 16 17 18 19 20 21 22 23 24 25 26 27 28 
141 29 30 31 32 33 34 35 36 37 38 39 40 41 42 43 44 45 46 47 48 49 50 51 52 53 54 55 56 57 58 59 60 61 62 63 64 65 66 67 68 69 70 71 72 73 74 75 76 77 78 79 80 81 82 83 84 85 86 87 88 89 90 91 92 93 94 95 96 97 98 99 100 101 102 103 104 105 106 107 108 109 110 111 112 113 114 115 116 117 118 119 120 121 122 123 124 125 126 127 128 129 130 131 132 133 134 135 136 137 138 139 140 141 142 143 144 145 146 147 148 149 150 151 152 153 154 155 156 157 158 159 160 161 162 163 164 165 166 167 168 169 
88 170 171 172 173 174 175 176 177 178 179 180 181 182 183 184 185 186 187 188 189 190 191 192 193 194 195 196 197 198 199 200 201 202 203 204 205 206 207 208 209 210 211 212 213 214 215 216 217 218 219 220 221 222 223 224 225 226 227 228 229 230 231 232 233 234 235 236 237 238 239 240 241 242 243 244 245 246 247 248 249 250 251 252 253 254 255 256 257 
78 258 259 260 261 262 263 264 265 266 267 268 269 270 271 272 273 274 275 276 277 278 279 280 281 282 283 284 285 286 287 288 289 290 291 292 293 294 295 296 297 298 299 300 301 302 303 304 305 306 307 308 309 310 311 312 313 314 315 316 317 318 319 320 321 322 323 324 325 326 327 328 329 330 331 332 333 334 335 
27 336 337 338 339 340 341 342 343 344 345 346 347 348 349 350 351 352 353 354 355 356 357 358 359 360 361 362 
38 363 364 365 366 367 368 369 370 371 372 373 374 375 376 377 378 379 380 381 382 383 384 385 386 387 388 389 390 391 392 393 394 395 396 397 398 399 400 

CELL_DATA 7
FIELD FieldData 1
Topology 2 7 vtkIdType
0 1 1 -1 1 2 2 3 2 
-1 3 -1 -1 4 
POINT_DATA 401
FIELD FieldData 1
MaximumInscribedSphereRadius 1 401 double
0 1.0554096339 1.2100727247 1.3097291968 1.39931329 1.5092750593 1.4985979603 1.4985979603 1.4143761369 
1.4143761369 1.3262123848 1.3328114223 1.2856579204 1.3039890359 1.3237971374 1.3221762454 1.2901207001 1.2452725386 
1.2307904462 1.2725568225 1.3198670859 1.3526448791 1.3718588991 1.3603288914 1.317414971 1.2825246905 1.2376312808 
0.93787820956 0.47801442209 1.3991237269 1.3991237269 1.3406793335 1.2622657676 1.2511072837 1.2505998499 1.3001441068 
1.3300298325 1.3526251016 1.382119303 1.4162754729 1.4410069566 1.4097160757 1.3756092197 1.3686444534 1.3864061253 
1.4401764856 1.5013802045 1.4900277287 1.4575129166 1.408090838 1.415449715 1.4154197192 1.3999595165 1.3861527587 
1.3711042232 1.3696988093 1.325577907 1.2738520685 1.2314895523 1.2374885204 1.2681021135 1.311537072 1.3677780998 
1.4590979832 1.5147044051 1.5728958014 1.6253406824 1.626688534 1.5408026579 1.513912021 1.5314195995 1.5503339064 
1.5844733412 1.6161496728 1.6103695885 1.6005992057 1.6006343666 1.6174507475 1.6478337087 1.6987882512 1.7692326117 
1.8268628565 1.8634950664 1.8983364223 1.9065932276 1.8887188106 1.9186536175 1.9609688168 2.0084442472 1.9557557632 
1.882019989 1.8437493233 1.8154776366 1.7080264976 1.5668016019 1.503444348 1.5072142864 1.507975192 1.514965101 
1.5620149868 1.6308746368 1.7074365217 1.7693053995 1.7994780018 1.8043065282 1.7813002276 1.7562615831 1.7384173487 
1.7358429557 1.7683761693 1.7725089708 1.7558527859 1.7481891368 1.7247345168 1.6744391303 1.6265984101 1.6449975419 
1.6608240003 1.6706708174 1.6713559705 1.6951386779 1.7253224898 1.7597204539 1.7874734624 1.7501118846 1.732697634 
1.7449143561 1.7192734001 1.6744654348 1.5897074866 1.4947716864 1.4380153056 1.4150576617 1.4000647873 1.3939721842 
1.3752241833 1.353110872 1.3243920807 1.3145175168 1.2938701424 1.1709479146 1.0364565277 1.0335128431 1.0298165586 
1.0250214012 1.0367239043 0.9609647767 0.86666270804 0.86799341804 0.87128832399 0.86930581265 0.85524234586 0.83377560341 
0.84191413775 0.87797529528 0.91353981364 0.94222030912 0.99097934834 1.0345629994 1.0763942466 1.1121572903 1.1434589773 
1.1754371441 1.2094498168 1.2250742886 1.2541131384 1.2770979208 1.2933722962 1.3179157558 1.3179157558 1.5505969103 
1.5505969103 1.5068785839 1.5137823715 1.530372555 1.5386957934 1.5254857275 1.5169839037 1.5178704836 1.5116220578 
1.5117006493 1.4897976665 1.4854141455 1.4716329357 1.443601563 1.380057703 1.3038285846 1.2600216121 1.205044601 
1.1972308874 1.229685091 1.2835942817 1.3052110676 1.2743370226 1.235470438 1.2193465901 1.2141850962 1.1940583047 
1.2172560371 1.2754241476 1.3277725491 1.3272893472 1.2970302517 1.283366703 1.3244302377 1.3619704109 1.3993360697 
1.421261738 1.493708224 1.5964341257 1.6956113783 1.8145724407 1.9521042078 2.0350411106 2.0671813631 1.4756859327 
1.3348981043 1.3168337713 1.2796641078 1.2826094603 1.2221009265 1.2067090264 1.1784528793 1.20089741 1.2445370169 
1.2913260965 1.2848613455 1.2324337289 1.2601945527 1.2409337262 1.1882404419 1.1687848094 1.1970343953 1.2300203466 
1.2433347328 1.2110333278 1.2224090599 1.2876870721 1.3177905462 1.3211015687 1.2814698432 1.2333160297 1.2350305817 
1.2611090042 1.2621712195 1.2587738006 1.2974184462 1.3116378627 1.2480743999 1.21478285 1.1785412752 1.1738175588 
1.1589721643 1.1203861788 1.0747924237 1.0312075454 1.0479617691 1.0479617691 0.92836958092 0.92836958092 0.88383589537 
0.83858164628 0.83693793592 0.84792769422 0.87232160134 0.90476607665 0.9357198851 0.95207541593 0.96599406431 0.98954371585 
0.98400635218 0.9502343112 0.9077701043 0.88402107374 0.8852894229 0.8916335264 0.90758707071 0.95742024613 1.0056592538 
1.0327418776 1.0409963689 1.0509109057 1.0084329798 0.95989233533 0.92819008549 0.93060464602 0.94257836637 0.92449025372 
0.9303158972 0.98433794717 1.0594973376 1.1133430597 1.1648417635 1.1903634698 1.194920302 1.1487041611 1.124436412 
1.1426435265 1.1566611433 1.1746445141 1.1834542706 1.1890852411 1.21326917 1.2487088377 1.2863632809 1.3230839358 
1.3609161454 1.4069492349 1.4374203592 1.4399918965 1.4291905041 1.3811448166 1.3494787656 1.3109483986 1.2826441218 
1.2666544958 1.2242693516 1.2028212656 1.2357636838 1.2701016286 1.2932372877 1.3296327163 1.3530773244 1.3708559397 
1.3807303959 1.3704228608 1.3639724854 1.3536163848 1.3518948136 1.3250760755 1.2670343031 1.2497583788 1.2610809323 
1.2523131838 1.1989972298 0.8067959105 1.0913405431 1.0913405431 1.0184297812 0.87924760336 0.80767471782 0.80046835422 
0.80935282159 0.82834681972 0.82198105717 0.81080077116 0.75555690958 0.72122581829 0.70872674902 0.6761918865 0.66629322534 
0.64506583334 0.59361134147 0.51152174544 0.38344085501 0.31434256923 0.30303345345 0.31489683711 0.32083649352 0.30269104354 
0.23063724887 0.18515411783 0.15691190346 0.45196210762 0.60251443726 0.69713419258 0.70614505329 0.67034126248 0.66418085327 
0.66754648462 0.65486726413 0.73265664105 0.79014086401 0.7581411928 0.71060015215 0.67410562415 0.63654257065 0.60909635553 
0.58553509379 0.59983313813 0.58317439212 0.557032678 0.626859358 0.69297664445 0.67053824 0.65316451309 0.65172313293 
0.799833772 0.84583741845 0.85757140042 0.81119032398 0.79184831677 0.81280564378 0.86589369861 0.91526392125 0.93965370161 
0.90851095484 0.85247560172 0.80951369496 0.81663554552 0.81663554552 
