# vtk DataFile Version 4.2
vtk output
ASCII
DATASET POLYDATA
POINTS 128 float
-53.3182 99.244 -7.5987 -51.4202 106.312 -4.12445 -49.8391 108.718 -2.4433 
-48.1262 111.311 -0.812588 -44.5527 116.517 1.70514 -40.5043 122.503 4.38764 
-36.3717 126.29 6.03041 -33.5139 129.126 6.71536 -29.9772 132.176 7.99225 
-24.1604 136.353 8.83037 -21.5719 138.181 9.21134 -18.7369 140.675 8.66544 
-15.9877 142.503 7.14325 -5.83559 147.631 1.23636 -1.58066 149.112 -1.14445 
0.501053 150.642 -0.961552 3.73045 153.451 -0.440435 7.26462 154.862 1.3959 
9.56445 155.739 4.35067 11.0261 155.648 6.55153 11.9212 155.388 9.553 
12.2858 154.819 12.6426 11.7062 154.347 15.1018 10.8822 153.792 16.9069 
8.61993 153.742 19.6135 5.93657 154.126 21.7865 3.51028 155.039 23.4199 
1.86256 156.075 24.8869 -0.178955 157.375 26.1805 -2.85806 159.577 28.1192 
-4.68834 160.96 29.2379 -6.53673 162.491 30.5651 -8.25543 163.706 31.4842 
-10.7278 165.313 32.8237 -13.3112 166.301 34.3191 -16.0419 167.118 36.296 
-18.6296 166.724 37.9926 -20.7536 166.495 40.0898 -22.5148 166.255 42.2871 
-24.2192 165.323 45.4436 -24.867 164.615 47.5805 -25.1232 163.936 50.4712 
-24.8791 163.204 52.5352 -23.9394 161.813 55.8938 -22.6879 160.592 58.3947 
-21.1898 159.783 60.8009 -19.46 159.103 63.7615 -18.0127 158.899 66.145 
-16.2888 159.055 68.4856 -14.9454 159.418 71.0947 -13.7536 159.973 72.9994 
-12.4344 160.715 75.8102 -11.5743 161.441 77.659 -10.425 162.329 79.9256 
-9.48264 163.469 82.3116 -8.47806 164.675 84.4755 -7.88554 165.648 86.3029 
-7.16733 167.011 88.7952 -6.38708 168.557 91.6265 -6.07484 169.735 94.5668 
-5.92188 170.718 96.6616 -6.05135 171.712 99.397 -5.79199 172.545 101.373 
-5.85614 173.451 103.827 -5.95329 174.41 105.898 -6.27597 175.557 108.06 
-6.77626 176.701 110.823 -7.74956 177.871 114.093 -7.50923 178.178 116.874 
-6.7603 178.01 119.225 -5.91895 178.415 121.735 -6.37125 179.333 124.473 
-8.47099 179.875 125.842 -10.6196 180.084 126.29 -13.0472 180.395 125.922 
-16.2357 180.192 126.255 -18.2996 179.993 126.765 -20.3521 179.451 127.772 
-22.0748 179.158 129.366 -23.1299 178.765 131.288 -23.3218 178.576 133.534 
-22.8917 178.51 136.383 -22.2314 179.033 138.497 -21.6361 179.353 140.709 
-20.6869 179.62 142.736 -19.7161 180.088 145.274 -19.0199 180.419 147.656 
-18.5937 180.605 149.876 -18.6495 180.626 153.26 -18.8359 180.752 155.57 
-19.5338 180.497 158.108 -20.4931 180.575 160.203 -21.7939 180.672 162.711 
-23.0796 180.886 164.826 -24.3101 180.803 166.661 -25.5369 180.871 169.211 
-26.382 181.862 171.392 -26.0056 183.178 173.046 -24.9995 184.486 174.437 
-23.1568 185.89 175.345 -21.1287 186.828 175.741 -18.6093 187.694 175.453 
-16.3693 188.669 174.843 -13.6629 189.81 174.375 -11.4876 191.107 174.318 
-9.68362 192.291 174.572 -7.72614 194.041 175.327 -6.26826 195.658 176.72 
-5.13245 196.499 178.978 -4.40401 196.962 181.883 -4.03574 196.699 184.238 
-2.93896 196.564 186.469 -1.63789 198.601 188.015 -2.12868 201.046 187.016 
-4.30614 202.17 185.503 -6.13719 204.178 185.631 -6.02895 206.786 187.053 
-4.12822 207.629 188.894 -2.5789 207.404 190.666 -1.36288 206.343 192.448 
-1.30678 201.957 195.857 -2.50739 199.87 196.867 -3.62234 198.463 197.842 
-5.155 197.324 199.444 -6.45789 196.912 201.677 -8.4379 196.923 203.152 
-12.5173 198.03 202.928 -13.1635 198.32 202.533 
LINES 1 129
128 0 1 2 3 4 5 6 7 8 9 10 11 12 13 14 15 16 17 18 19 20 21 22 23 24 25 26 27 28 29 30 31 32 33 34 35 36 37 38 39 40 41 42 43 44 45 46 47 48 49 50 51 52 53 54 55 56 57 58 59 60 61 62 63 64 65 66 67 68 69 70 71 72 73 74 75 76 77 78 79 80 81 82 83 84 85 86 87 88 89 90 91 92 93 94 95 96 97 98 99 100 101 102 103 104 105 106 107 108 109 110 111 112 113 114 115 116 117 118 119 120 121 122 123 124 125 126 127 

POINT_DATA 128
FIELD FieldData 1
attention_weight 1 128 float
0.5 0.312851 0.306563 0.272002 0.304804 0.270993 0.25057 0.250176 0.252141 
0.248196 0.249795 0.250337 0.268635 0.25 0.249752 0.221892 0.211494 0.178074 
0.172439 0.165809 0.152933 0.150041 0.147434 0.141851 0.14248 0.143659 0.14322 
0.143647 0.142981 0.142275 0.143565 0.142825 0.143335 0.143151 0.143517 0.142667 
0.142158 0.141469 0.141751 0.141874 0.142736 0.142554 0.143322 0.141937 0.142996 
0.142803 0.142791 0.142762 0.14335 0.142256 0.143168 0.143116 0.142641 0.143061 
0.142704 0.14254 0.142498 0.143022 0.142991 0.131831 0.129619 0.127119 0.135195 
0.127304 0.1277 0.127583 0.134971 0.13811 0.129805 0.12006 0.12517 0.132903 
0.117976 0.11563 0.110151 0.117857 0.111196 0.11179 0.111628 0.112881 0.111377 
0.110841 0.110633 0.110826 0.117719 0.119407 0.121263 0.123352 0.124827 0.135169 
0.126981 0.138293 0.121568 0.125926 0.118352 0.113096 0.113089 0.113405 0.111775 
0.118522 0.113073 0.119525 0.120622 0.122915 0.124778 0.135163 0.137556 0.12897 
0.106244 0.10551 0.108852 0.115758 0.0818195 0.081332 0.0886607 0.092526 0.10253 
0.0987053 0.0958623 0.0925835 0.0943202 0.0936412 0.123582 0.121141 0.120947 0.131645 
0.158664 0.158033 
