# vtk DataFile Version 4.2
vtk output
ASCII
DATASET POLYDATA
POINTS 69 float
71.4963 144.997 20.12 71.7725 144.94 20.6478 71.9538 144.765 21.0767 
72.1345 144.676 21.3379 72.3091 144.584 21.5571 72.3511 144.54 21.6624 
72.5816 144.31 22.1365 72.891 144.075 22.5133 73.1677 143.675 23.1384 
73.1842 143.654 23.1658 73.3687 143.505 23.4381 73.4652 143.458 23.5558 
73.6754 143.235 23.8467 74.1177 142.668 24.4744 74.3481 142.233 24.9567 
74.3494 142.231 24.959 74.4662 142.097 25.1146 74.6254 141.948 25.3409 
74.6274 141.946 25.3437 74.9737 141.498 25.8282 75.3124 140.963 26.3852 
75.4625 140.644 26.7002 75.499 140.583 26.7733 75.5597 140.452 26.9147 
75.6132 140.341 27.019 75.7307 140.106 27.2018 75.8064 140.007 27.3019 
75.8572 139.951 27.3587 76.1964 139.441 27.8775 76.3222 139.304 27.9874 
76.4425 139.134 28.1533 76.8572 138.459 28.7948 76.8634 138.445 28.8163 
77.0635 138.176 29.2115 77.3711 137.79 29.6182 77.4408 137.704 29.6844 
77.6067 137.486 29.8402 77.7157 137.365 29.9763 77.9375 137.03 30.4168 
78.3354 136.497 30.8805 84.7114 131.082 35.0408 84.6804 131.091 35.0431 
84.618 131.106 35.0568 84.5763 131.116 35.0624 83.8996 131.348 34.9491 
83.7549 131.431 34.8837 83.3168 131.623 34.7624 82.8751 131.874 34.5589 
82.8214 131.907 34.5229 82.3554 132.147 34.372 82.1368 132.258 34.2598 
81.3163 132.672 34.064 80.8415 132.939 33.7008 80.6154 133.058 33.5795 
80.3505 133.242 33.4313 80.2647 133.316 33.3574 80.1181 133.45 33.19 
79.8456 133.697 32.9652 79.6803 133.874 32.8585 79.6037 133.974 32.7754 
79.4511 134.194 32.5846 79.0211 134.667 32.1816 79.0073 134.69 32.1625 
78.9309 134.797 32.0848 78.7783 135.061 31.9559 78.6801 135.286 31.7893 
78.6068 135.417 31.6956 78.378 136.117 31.1567 78.3679 136.183 31.1156 

LINES 2 74
41 39 38 37 36 35 34 33 32 31 31 30 29 28 27 26 25 24 23 22 21 20 19 18 17 16 15 14 13 12 11 10 9 8 7 6 5 4 3 2 1 0 
31 39 68 67 67 66 65 64 63 62 61 60 59 58 57 56 55 54 53 52 51 50 49 48 47 46 45 44 43 42 41 40 

POINT_DATA 69
FIELD FieldData 3
MaximumInscribedSphereRadius 1 69 double
2.0373095674 2.1781523055 2.280849414 2.340543821 2.3980437876 2.407646713 2.4505476137 2.4713763686 2.550875497 
2.5578088556 2.6287425118 2.6651729641 2.6922329615 2.5867403739 2.6331269397 2.6336285626 2.6579046985 2.6889971704 
2.6893628976 2.6638139597 2.6229936093 2.6508696026 2.6564644628 2.6618360364 2.6721942558 2.6891127038 2.6930333106 
2.6897714917 2.7056374965 2.706220479 2.6934223725 2.7979235389 2.8000049656 2.8198920355 2.863918918 2.8781433104 
2.9140204709 2.9398469639 2.9617239258 3.0132201681 1.946081956 1.9557214509 1.9678306307 1.9729527046 2.0050264998 
2.0009375375 2.0055417101 2.0455455281 2.0485948552 2.0582990565 2.0709860523 2.2097692956 2.3129532034 2.3608053916 
2.4183238853 2.4415600627 2.4658018405 2.5316765412 2.5678436032 2.5866982873 2.6241606751 2.782311437 2.7881017874 
2.8070352797 2.874675892 2.8869104411 2.890834576 2.9409522102 2.9528846762 
EdgeArray 2 69 double
78 78 241 262 306 306 405 405 408 
409 254 409 459 254 426 460 508 505 
509 505 509 509 581 586 534 534 474 
474 558 558 698 633 698 699 699 699 
746 608 742 742 493 493 710 710 709 
711 711 711 681 713 680 680 788 793 
788 667 862 816 818 815 567 727 786 
786 840 840 897 972 975 975 976 959 
943 959 970 943 970 830 571 571 1171 
1171 1570 1526 1570 1488 1466 1488 1450 1484 
1585 1355 1222 1583 1210 1460 1210 1443 1444 
1444 1336 1298 1201 1201 1161 1161 641 1407 
1071 1407 1088 1408 1088 1342 1056 1165 1163 
1165 1163 1072 1053 1053 1083 1000 1123 1083 
1124 1124 1073 1073 1012 1052 1012 1012 1009 
1009 1005 1005 
EdgePCoordArray 1 69 double
0 0.368 0 0 0.816 0.68 0.724 0.268 0.972 
0.924 0 0.232 0 0 0 0.988 0.304 0 
0.98 0 0 0 0.204 0 0.82 0 0.388 
0.028 0.852 0.76 0.644 0 0 0.076 0 0.276 
0.88 0.856 0.196 0 0 0.82 0.352 0.52 0.668 
0.364 0.5 0.112 0.272 0 0.976 0 0 0.328 
0.908 0.684 0.112 0.536 0.588 0.428 0 0.032 0.644 
0 0 0.656 0 0 0 
