# vtk DataFile Version 4.2
vtk output
ASCII
DATASET POLYDATA
POINTS 962 float
-13.772 162.1 131.113 -13.9749 162.125 131.015 -14.3468 162.077 130.822 
-14.5538 162.042 130.702 -15.0002 162.092 130.4 -15.0175 162.095 130.384 
-15.531 162 130.037 -15.5741 162.019 130.01 -16.1144 161.935 129.645 
-16.2183 161.948 129.591 -16.2915 161.95 129.565 -16.4073 161.956 129.524 
-16.4316 161.959 129.514 -16.7069 162.021 129.384 -16.9707 162.01 129.289 
-17.1573 162.006 129.195 -17.1719 162.01 129.186 -17.2187 162.018 129.152 
-17.3966 162.055 129.054 -17.4534 162.065 129.018 -17.6409 162.067 128.924 
-17.6753 162.065 128.91 -17.9967 162.048 128.758 -18.0265 162.048 128.74 
-18.0488 162.052 128.725 -18.1958 162.036 128.642 -18.4262 162.048 128.475 
-18.7975 161.955 128.112 -18.9548 161.977 128.01 -19.2164 161.898 127.792 
-19.5096 161.815 127.62 -19.7801 161.779 127.469 -19.9419 161.75 127.37 
-20.0908 161.708 127.269 -20.2474 161.614 127.202 20.2428 152.964 152.993 
20.2406 152.968 152.995 20.0585 153.312 153.143 19.7244 153.852 153.233 
19.5221 154.069 153.353 18.9414 154.822 153.684 18.7796 155.077 153.844 
18.7675 155.1 153.857 18.5054 155.411 153.995 18.4688 155.45 154.009 
18.4245 155.509 154.033 18.2314 155.755 154.24 18.1719 155.823 154.282 
18.094 155.885 154.318 17.5712 156.491 154.68 17.3949 156.663 154.75 
17.3292 156.714 154.761 16.8448 157.236 155.023 16.7486 157.347 155.122 
16.5087 157.733 155.346 16.3493 157.913 155.363 16.0143 158.242 155.574 
16.0022 158.258 155.584 15.6822 158.572 155.775 15.6207 158.627 155.798 
15.4656 158.825 155.845 15.2946 158.945 155.91 15.278 158.954 155.919 
15.1866 159.043 155.979 15.0853 159.128 156.004 14.8229 159.528 156.331 
14.6579 159.684 156.428 14.363 160.073 156.678 14.3573 160.083 156.68 
13.8969 160.657 156.933 13.8701 160.682 156.933 13.861 160.69 156.936 
13.6725 160.918 157.006 13.5331 161.149 157.174 13.476 161.251 157.252 
13.3155 161.447 157.316 13.3135 161.451 157.317 13.2127 161.606 157.373 
12.9355 161.958 157.571 12.8615 162.031 157.64 12.784 162.113 157.735 
12.7476 162.144 157.761 12.7148 162.175 157.792 12.4993 162.423 158 
12.4697 162.469 158.025 12.4387 162.511 158.043 12.4379 162.512 158.044 
12.1541 162.803 158.324 12.153 162.803 158.325 12.0875 162.826 158.388 
12.0859 162.829 158.391 11.8861 163.141 158.772 11.8799 163.16 158.798 
11.7678 163.47 158.962 11.7352 163.567 159.048 11.6492 163.835 159.256 
11.6085 163.913 159.315 11.4642 164.272 159.723 11.4609 164.282 159.73 
11.2839 164.514 160.004 11.1197 164.692 160.302 10.9868 164.839 160.589 
10.9137 164.938 160.797 10.8481 165.02 160.952 10.6377 165.319 161.236 
10.5824 165.383 161.347 10.4943 165.561 161.599 10.4935 165.563 161.601 
10.4888 165.7 161.773 10.3755 166.034 162.084 10.3445 166.312 162.503 
10.3391 166.42 162.736 10.3392 166.421 162.738 10.3399 166.423 162.742 
10.3353 166.61 162.92 10.212 167.139 163.38 10.1907 167.324 163.513 
10.1829 167.342 163.546 10.1934 167.376 163.642 10.1922 167.387 163.661 
9.99857 167.914 164.199 9.99251 167.935 164.239 9.84529 168.312 164.571 
9.81732 168.339 164.607 9.78989 168.361 164.634 9.68878 168.507 164.763 
9.54131 168.776 164.998 9.38516 168.938 165.197 9.31439 169.062 165.348 
9.17939 169.334 165.649 9.17427 169.359 165.665 8.99413 169.703 165.95 
8.95621 169.809 166.014 8.95344 169.814 166.019 8.92152 169.875 166.074 
8.84988 169.989 166.167 8.76169 170.111 166.245 8.50392 170.421 166.436 
8.45681 170.449 166.474 8.28111 170.611 166.574 8.07264 170.765 166.64 
7.99121 170.838 166.68 7.87208 170.957 166.713 7.53076 171.258 166.82 
7.28798 171.522 166.816 7.28511 171.525 166.818 7.18559 171.659 166.888 
6.82006 172.044 166.972 6.78497 172.074 166.971 6.54542 172.212 166.978 
6.40413 172.298 167.048 5.96911 172.657 167.182 5.77885 172.823 167.196 
5.4699 172.993 167.277 5.36273 173.04 167.282 5.32584 173.066 167.287 
5.19409 173.17 167.362 4.99474 173.348 167.37 4.48253 173.696 167.555 
4.47787 173.702 167.555 3.95321 174.087 167.614 3.88354 174.179 167.595 
3.41438 174.497 167.77 2.93142 174.794 167.88 2.81861 174.868 167.899 
2.80212 174.877 167.897 2.50241 175.039 167.949 2.42686 175.085 167.995 
2.26931 175.157 168.091 2.26855 175.158 168.092 2.20623 175.21 168.138 
1.94148 175.272 168.277 1.92282 175.279 168.292 1.76579 175.38 168.386 
1.28367 175.631 168.661 1.25797 175.653 168.66 0.909711 175.894 168.861 
0.57483 176.114 168.939 0.35634 176.26 169.09 0.296629 176.308 169.153 
0.275306 176.331 169.184 0.177255 176.398 169.307 -0.130275 176.6 169.533 
-0.271251 176.736 169.746 -0.456917 176.808 169.928 -0.46084 176.811 169.934 
-0.715148 176.946 170.199 -0.791498 177.014 170.322 -0.842536 177.058 170.38 
-0.966013 177.153 170.547 -1.06634 177.263 170.638 -1.07047 177.268 170.64 
-1.07284 177.27 170.641 -1.32382 177.563 170.827 -1.35879 177.612 170.868 
-1.44997 177.748 171.076 -1.47159 177.859 171.222 -1.54957 178.069 171.444 
-1.68434 178.326 171.845 -1.69022 178.356 171.897 -1.76445 178.462 172.22 
-1.80929 178.557 172.354 -1.78712 178.671 172.672 -1.8047 178.702 172.738 
-1.82346 178.841 173.011 -1.77287 178.959 173.318 -1.77304 178.959 173.319 
-1.78637 178.981 173.413 -1.75984 179.023 173.549 -1.61069 179.272 173.954 
-1.59885 179.286 173.975 -1.49686 179.47 174.251 -1.48836 179.497 174.286 
-1.45752 179.595 174.374 -1.43913 179.643 174.441 -1.43808 179.646 174.444 
-1.38663 179.797 174.602 -1.38651 179.801 174.608 -1.38546 179.84 174.664 
-1.39524 179.893 174.728 -1.39865 179.933 174.771 -1.39485 180.06 174.99 
-1.44398 180.166 175.274 -1.45969 180.231 175.499 -1.46097 180.245 175.598 
-1.47211 180.263 175.651 -1.51654 180.303 175.804 -1.99377 180.396 176.381 
-2.12711 180.411 176.439 -2.47058 180.318 176.633 -2.90467 180.195 176.756 
-3.20833 180.079 176.823 -3.3764 180.049 176.882 -3.9308 179.937 176.93 
-4.25164 179.82 176.928 -4.88201 179.456 177.049 -4.91406 179.456 177.046 
-5.38777 179.231 177.047 -5.83405 178.964 177.036 -5.98801 178.836 177 
-6.20569 178.681 176.968 -6.24592 178.65 176.963 -6.29067 178.595 176.956 
-6.67172 178.285 176.942 -6.875 178.115 176.891 -6.90057 178.09 176.877 
-7.03351 177.968 176.834 -7.26924 177.656 176.699 -7.29188 177.627 176.68 
-7.43348 177.544 176.635 -7.87656 177.158 176.473 -7.94738 177.091 176.441 
-8.06256 176.923 176.394 -8.12396 176.8 176.338 -8.3079 176.562 176.263 
-8.31544 176.546 176.253 -8.35605 176.489 176.215 -8.61853 176.042 175.976 
-8.62986 176.015 175.953 -8.90993 175.518 175.771 -8.92068 175.498 175.754 
-8.99067 175.369 175.669 -9.03424 175.307 175.603 -9.18653 175.092 175.436 
-9.20266 175.073 175.425 -9.34636 174.867 175.269 -9.3896 174.751 175.173 
-9.39025 174.75 175.172 -9.46561 174.563 175.006 -9.51424 174.342 174.734 
-9.5341 174.095 174.604 -9.61323 173.887 174.433 -9.64792 173.77 174.354 
-9.65441 173.582 174.226 -9.65442 173.581 174.226 -9.65467 173.491 174.198 
-9.64029 173.386 174.166 -9.64008 173.385 174.166 -9.61365 173.235 174.092 
-9.60786 173.162 173.994 -9.6163 172.676 173.632 -9.66319 172.499 173.538 
-9.66389 172.497 173.537 -9.68509 172.415 173.483 -9.73618 172.298 173.273 
-9.69902 171.734 172.903 -9.61385 171.283 172.52 -9.55178 171.159 172.476 
-9.39165 170.737 172.198 -9.38067 170.648 172.107 -9.3791 170.642 172.101 
-9.32335 170.358 171.732 -9.27238 170.276 171.609 -9.06351 169.891 171.416 
-8.73328 169.563 171.084 -8.69793 169.527 171.049 -8.49353 169.241 170.662 
-8.37034 169.134 170.557 -8.36417 169.129 170.55 -8.08348 168.926 170.298 
-7.99897 168.86 170.22 -7.93152 168.804 170.109 -7.49032 168.555 169.706 
-7.20421 168.469 169.476 -6.86049 168.232 169.095 -6.85675 168.23 169.092 
-6.70501 168.151 168.975 -6.64782 168.103 168.91 -6.22225 167.8 168.434 
-6.16686 167.706 168.249 -6.09247 167.643 168.082 -6.0674 167.622 168.02 
-5.5745 167.441 167.579 -4.98049 167.011 166.693 -4.88404 166.948 166.563 
-4.83397 166.91 166.493 -4.61399 166.735 166.155 -4.60461 166.728 166.136 
-4.51992 166.642 165.961 -4.27175 166.449 165.471 -4.21827 166.408 165.382 
-4.20402 166.397 165.355 -4.18963 166.381 165.323 -4.10199 166.31 165.119 
-4.00018 166.215 164.814 -3.9985 166.213 164.811 -3.91605 166.114 164.669 
-3.81533 165.934 164.362 -3.73468 165.846 164.195 -3.71175 165.826 164.154 
-3.5156 165.567 163.542 -3.50713 165.526 163.463 -3.49566 165.508 163.436 
-3.36022 165.374 163.1 -3.31098 165.289 162.851 -3.30669 165.152 162.589 
-3.30846 165.08 162.386 -3.30596 165.059 162.337 -3.27129 164.946 162.1 
-3.31814 164.69 161.633 -3.3206 164.638 161.468 -3.31461 164.57 161.25 
-3.32532 164.542 161.154 -3.3937 164.26 160.609 -3.43178 164.165 160.396 
-3.43308 164.158 160.386 -3.44724 164.127 160.324 -3.50601 163.954 160.024 
-3.51185 163.941 160.004 -3.67612 163.773 159.615 -3.77397 163.637 159.365 
-4.08666 163.348 158.926 -4.10514 163.333 158.902 -4.20481 163.212 158.754 
-4.21639 163.202 158.74 -4.26291 163.146 158.668 -4.6333 162.776 157.946 
-4.85407 162.579 157.618 -5.02583 162.416 157.394 -5.03083 162.41 157.385 
-5.4421 161.977 156.937 -5.44421 161.974 156.933 -5.65268 161.781 156.702 
-5.685 161.748 156.669 -5.81617 161.632 156.529 -6.01203 161.441 156.392 
-6.20305 161.256 156.268 -6.20431 161.255 156.267 -6.30789 161.179 156.222 
-6.47188 161.068 156.123 -6.6943 160.921 155.851 -6.79675 160.847 155.699 
-7.01666 160.691 155.465 -7.06255 160.655 155.419 -7.17405 160.557 155.314 
-7.3412 160.432 155.173 -7.45886 160.299 155.026 -7.59108 160.176 154.898 
-7.61151 160.161 154.872 -7.89845 159.885 154.678 -8.1232 159.642 154.494 
-8.14136 159.62 154.475 -8.32429 159.375 154.234 -8.38939 159.339 154.192 
-8.43215 159.306 154.158 -8.63437 159.154 154.006 -8.66693 159.128 153.986 
-8.87815 158.917 153.861 -8.95205 158.851 153.807 -9.11663 158.726 153.658 
-9.17588 158.673 153.611 -9.17928 158.67 153.609 -9.26799 158.585 153.527 
-9.59603 158.187 153.245 -9.74519 157.897 153.046 -9.94185 157.587 152.867 
-10.1583 157.358 152.717 -10.1593 157.356 152.716 -10.4292 156.689 152.189 
-10.5562 156.515 152.104 -10.5567 156.514 152.103 -10.622 156.39 152.047 
-10.7728 156.003 151.871 -10.8705 155.76 151.761 -10.97 155.411 151.584 
-11.0151 155.305 151.536 -11.018 155.302 151.535 -11.4426 154.729 151.283 
-11.6178 154.233 151.05 -11.706 154.096 150.976 -11.709 154.092 150.974 
-11.9877 153.566 150.816 -12.1768 153.335 150.768 -12.3508 153.078 150.592 
-12.6274 152.626 150.339 -13.3138 151.983 150.176 -13.4317 151.848 150.091 
-13.557 151.743 150.053 -14.1807 151.205 149.579 -14.3475 151.075 149.389 
-14.4291 151.035 149.315 -15.101 150.837 149.212 -15.4867 150.738 149.095 
-15.6437 150.735 149.016 -16.7 150.588 148.713 -16.8096 150.565 148.705 
-16.9656 150.472 148.736 -17.2769 150.411 148.696 -18.1898 150.585 148.682 
-18.2418 150.596 148.671 -18.6091 150.683 148.683 -18.8513 150.73 148.717 
-19.0964 150.801 148.783 -19.1497 150.819 148.806 -19.299 150.864 148.831 
-19.8695 151.008 148.954 -20.2539 151.088 149.097 -20.4702 151.145 149.211 
-21.1107 151.297 149.304 -21.4971 151.372 149.394 -21.6014 151.387 149.434 
-21.6627 151.398 149.449 -22.2504 151.518 149.564 -22.4947 151.608 149.588 
-22.573 151.655 149.601 -23.0405 151.973 149.822 -23.1654 152.055 149.857 
-23.5987 152.411 150.017 -23.631 152.437 150.024 -23.8771 152.578 150.071 
-24.0772 152.746 150.18 -24.1583 152.825 150.222 -24.3239 153.018 150.346 
-24.9443 153.711 150.468 -25.1142 154.066 150.467 -25.2287 154.271 150.526 
-25.4013 154.586 150.672 -25.4185 154.642 150.683 -25.4615 154.777 150.695 
-25.748 155.7 150.574 -25.7899 155.858 150.581 -25.8629 156.269 150.654 
-25.9055 156.41 150.641 -26.1458 157.253 150.652 -26.1527 157.284 150.645 
-26.2434 157.795 150.506 -26.2656 157.916 150.461 -26.3016 158.221 150.404 
-26.3114 158.331 150.409 -26.2155 158.985 150.438 -26.1911 159.555 150.427 
-26.1124 159.751 150.428 -25.7674 160.737 150.317 -25.7625 160.761 150.305 
-25.7302 160.899 150.263 -25.5368 161.497 150.193 -25.5362 161.499 150.193 
-25.462 161.74 150.201 -25.352 162.051 150.171 -25.2508 162.195 150.131 
-24.9042 162.915 150.035 -24.8696 163.045 150.024 -24.8485 163.087 150.025 
-24.7139 163.319 149.98 -24.6207 163.448 149.961 -24.2857 163.82 149.891 
-24.1282 164.024 149.834 -24.1089 164.052 149.824 -23.9547 164.266 149.814 
-23.6751 164.608 149.735 -23.6663 164.618 149.731 -23.5317 164.767 149.699 
-23.5251 164.775 149.698 -23.5016 164.8 149.698 -23.1345 165.205 149.653 
-23.0842 165.26 149.632 -22.8772 165.398 149.587 -22.4539 165.727 149.441 
-22.1763 165.917 149.415 -21.9614 166.074 149.39 -21.5441 166.286 149.31 
-21.5315 166.29 149.303 -20.9229 166.642 149.133 -20.6238 166.75 148.981 
-20.6138 166.752 148.975 -20.1846 166.887 148.812 -19.961 166.975 148.763 
-19.3435 167.154 148.358 -19.3296 167.153 148.35 -19.1689 167.159 148.248 
-18.8021 167.25 147.992 -18.7243 167.282 147.911 -18.5045 167.356 147.677 
-18.3708 167.369 147.521 -18.3531 167.373 147.496 -18.2228 167.409 147.303 
-18.1107 167.475 147.096 -17.8011 167.636 146.803 -17.3645 167.862 146.252 
-17.236 167.935 146.016 -17.2338 167.936 146.012 -17.1284 168.001 145.819 
-17.1015 168.014 145.755 -17.0708 168.024 145.681 -17.0646 168.025 145.672 
-17.0438 168.029 145.646 -16.8166 168.124 144.925 -16.8315 168.265 144.436 
-16.8344 168.27 144.404 -16.8499 168.286 144.249 -16.855 168.288 144.228 
-16.8554 168.289 144.227 -16.7192 168.413 143.297 -16.6739 168.44 143.087 
-16.7162 168.454 142.802 -16.786 168.486 142.462 -16.7991 168.425 141.987 
-16.8061 168.438 141.541 -16.8289 168.501 141.375 -16.8924 168.426 140.724 
-16.9178 168.385 140.577 -17.0434 168.328 140.094 -17.1258 168.315 139.95 
-17.3619 168.203 139.401 -17.3628 168.203 139.397 -17.4422 168.226 139.108 
-17.5859 168.143 138.643 -17.5897 168.14 138.635 -17.7357 168.122 138.037 
-17.7503 168.132 137.966 -17.9268 168.038 137.392 -17.964 168.022 137.313 
-17.9701 168.014 137.294 -17.9812 167.998 137.252 -18.0626 167.921 137.047 
-18.1907 167.809 136.626 -18.2962 167.494 136.253 -18.4582 167.256 135.782 
-18.6187 167.07 135.433 -18.6558 167.03 135.33 -18.6644 167.02 135.298 
-18.7631 166.862 135.045 -18.8279 166.751 134.891 -18.9129 166.567 134.719 
-18.9152 166.563 134.716 -19.0021 166.313 134.451 -19.1548 166.05 134.105 
-19.1851 165.992 134.059 -19.2946 165.765 133.913 -19.3209 165.663 133.844 
-19.6105 165.259 133.614 -19.7913 164.89 133.559 -19.9345 164.639 133.493 
-19.9863 164.54 133.473 -20.2323 164.134 133.324 -20.2339 164.13 133.323 
-20.5406 163.695 133.392 -20.8304 163.295 133.263 -20.8332 163.291 133.263 
-20.8438 163.272 133.261 -21.0354 162.992 133.164 -21.0819 162.938 133.148 
-21.224 162.795 133.092 -21.2747 162.737 133.07 -21.3315 162.668 133.055 
-21.4285 162.465 133.023 -21.7927 161.885 132.779 -21.8089 161.876 132.78 
-22.0805 161.532 132.623 -22.2037 161.371 132.536 -22.267 161.281 132.479 
-22.4481 160.988 132.372 -22.4898 160.913 132.355 -22.6138 160.581 132.222 
-22.6831 160.445 132.109 -22.8677 160.206 131.812 -22.8731 160.192 131.802 
-22.9572 159.986 131.622 -23.0882 159.673 131.265 -23.134 159.617 131.12 
-23.2936 159.346 130.715 -23.3449 159.267 130.569 -23.4036 159.21 130.406 
-23.4397 159.15 130.276 -23.4583 159.095 129.969 -23.4727 159.059 129.825 
-23.4813 159.004 129.666 -23.4726 158.953 129.505 -23.4731 158.95 129.493 
-23.4718 158.929 129.347 -23.4584 158.926 129.162 -23.4581 158.926 129.154 
-23.2888 159.037 128.562 -23.2883 159.035 128.539 -23.2861 159.037 128.526 
-23.2347 159.143 128.107 -23.19 159.23 127.916 -23.1502 159.287 127.846 
-23.0387 159.453 127.64 -23.0382 159.453 127.639 -23.022 159.482 127.611 
-22.8549 159.653 127.37 -22.3336 160.086 126.971 -22.2135 160.213 126.906 
-22.1552 160.276 126.889 -21.6066 160.67 126.83 -21.5903 160.68 126.829 
-21.3275 160.876 126.876 -20.7152 161.345 127.019 -20.6177 161.409 127.018 
-20.61 161.414 127.02 24.0468 169.026 198.355 24.1019 169.155 198.317 
24.1107 169.167 198.313 24.321 169.564 197.97 24.3783 169.935 197.816 
24.4003 170.024 197.723 24.4559 170.305 197.493 24.5031 170.659 197.202 
24.49 170.851 197.086 24.4426 171.209 196.808 24.4451 171.218 196.801 
24.4348 171.308 196.749 24.4677 171.539 196.543 24.4924 171.715 196.43 
24.5036 171.905 196.328 24.5096 172.022 196.243 24.4909 172.232 196.107 
24.4295 172.447 196.021 24.4349 172.572 195.96 24.4258 172.834 195.805 
24.4322 173.052 195.716 24.4455 173.197 195.643 24.4461 173.238 195.622 
24.4461 173.274 195.606 24.435 173.442 195.474 24.3651 173.696 195.315 
24.3237 173.989 195.115 24.3272 174.104 195.037 24.3349 174.235 194.965 
24.3357 174.392 194.899 24.3441 174.528 194.808 24.343 174.542 194.802 
24.2148 175.067 194.49 24.2074 175.1 194.464 24.1314 175.667 194.268 
24.1307 175.67 194.267 24.0473 175.991 194.121 24.0473 175.992 194.12 
24.0772 176.09 194.071 24.0442 176.287 194.014 23.596 176.987 193.682 
23.5911 177.008 193.679 23.4142 177.502 193.473 23.3737 177.671 193.406 
23.3076 177.909 193.397 23.2193 178.361 193.19 23.0778 178.818 193.044 
23.0719 178.831 193.04 23.0654 178.862 193.037 23.0414 178.983 193.016 
22.8637 179.334 192.78 22.6327 179.91 192.57 22.3787 180.341 192.53 
22.2624 180.495 192.446 22.0886 180.889 192.176 21.8695 181.353 192.092 
21.8538 181.413 192.094 21.8498 181.429 192.094 21.7137 181.801 191.98 
21.655 181.934 191.941 21.5245 182.189 191.919 21.446 182.355 191.878 
21.2156 182.761 191.886 20.8609 183.446 191.705 20.426 183.924 191.657 
20.3601 184.024 191.706 20.3416 184.071 191.711 19.9989 184.948 191.999 
19.9562 185.241 192.119 19.8234 185.494 192.162 19.7966 185.533 192.177 
19.58 185.923 192.4 19.5411 186.09 192.558 19.3481 186.571 192.967 
19.2897 186.65 193.077 19.1108 186.968 193.419 19.1022 186.981 193.44 
19.0206 187.123 193.639 19.013 187.136 193.655 19.0008 187.151 193.679 
18.9784 187.196 193.753 18.9779 187.198 193.755 18.9489 187.28 193.89 
18.9426 187.289 193.915 18.8931 187.341 194.098 18.8797 187.365 194.212 
18.8642 187.373 194.312 18.7397 187.503 194.582 18.6343 187.666 194.902 
18.6332 187.667 194.908 18.553 187.89 195.495 18.543 187.921 195.561 
18.5077 188.017 195.904 18.4945 188.029 195.997 18.4851 188.058 196.111 
18.2952 188.188 196.607 18.1536 188.22 196.897 18.1498 188.222 196.908 
18.1032 188.219 197.047 18.0743 188.194 197.121 17.7808 188.111 197.719 
17.7519 188.092 197.748 17.5072 187.895 198.149 17.3053 187.596 198.6 
17.2835 187.565 198.639 17.1649 187.462 198.848 17.1395 187.43 198.909 
17.1069 187.404 198.967 16.9657 187.328 199.171 16.8632 187.274 199.282 
16.7235 187.182 199.422 16.605 187.135 199.554 16.3473 187.043 199.739 
16.0688 186.932 199.869 15.7423 186.882 199.974 15.3467 186.893 200.098 
15.234 186.908 200.112 14.7132 186.987 200.136 14.6752 186.986 200.132 
14.1952 187.019 200.136 14.0117 187.06 200.123 13.7378 187.104 200.084 
13.6498 187.095 200.055 13.6335 187.096 200.052 13.2701 187.107 199.865 
13.2075 187.107 199.839 13.0769 187.114 199.787 13.0029 187.118 199.748 
12.8332 187.147 199.664 12.6404 187.143 199.573 12.4139 187.143 199.416 
12.3863 187.14 199.4 12.3292 187.131 199.343 11.7678 187.097 198.803 
11.767 187.097 198.803 11.6718 187.145 198.725 11.6086 187.162 198.673 
11.3622 187.178 198.502 11.3515 187.177 198.492 11.3425 187.177 198.482 
11.1026 187.198 198.216 10.9204 187.324 197.827 10.8095 187.318 197.568 
10.769 187.354 197.335 10.7304 187.423 197.119 10.7274 187.565 196.45 
10.6938 187.611 196.276 10.6745 187.626 196.19 10.6889 187.776 195.501 
10.7715 187.738 195.005 10.7954 187.728 194.933 10.8518 187.831 194.244 
10.8995 187.794 194.062 10.9006 187.793 194.056 11.1244 187.863 193.4 
11.1389 187.851 193.204 11.1395 187.854 193.187 11.2234 187.824 192.92 
11.385 187.864 192.561 11.5795 187.883 192.074 11.6372 187.807 191.735 
11.6367 187.804 191.71 11.7075 187.805 191.324 11.7036 187.782 191.181 
11.7102 187.756 191.099 11.7494 187.704 190.899 11.7711 187.701 190.832 
11.8132 187.598 190.377 11.8589 187.537 190.164 11.8351 187.479 189.767 
11.8309 187.473 189.747 11.8851 187.375 189.282 11.8691 187.282 188.963 
11.9471 187.091 188.481 11.944 187.068 188.351 11.9451 186.734 187.729 
11.9581 186.725 187.658 11.9432 186.443 187.039 11.927 186.373 186.823 
11.8276 186.261 186.199 11.8263 186.254 186.183 11.7898 186.191 186.047 
11.7888 186.189 186.043 11.7626 186.041 185.755 11.7242 185.944 185.551 
11.6789 185.881 185.401 11.668 185.859 185.358 11.5745 185.736 184.937 
11.4741 185.508 184.629 11.3676 185.405 184.386 11.1392 185.216 183.684 
11.1238 185.212 183.657 11.0029 185.097 183.439 10.8831 184.961 183.272 
10.7887 184.87 183.082 10.726 184.828 182.984 10.6452 184.751 182.856 
10.5617 184.679 182.68 10.5143 184.635 182.612 10.3407 184.456 182.273 
10.3297 184.446 182.252 10.3279 184.444 182.248 10.286 184.411 182.17 
10.0615 184.226 181.867 9.95875 184.116 181.695 9.84122 184.017 181.6 
9.59358 183.889 181.432 9.22267 183.618 181.052 9.02789 183.53 180.887 
8.98261 183.521 180.848 8.84137 183.509 180.739 8.3409 183.413 180.359 
8.25694 183.421 180.285 7.44413 183.203 179.756 7.43232 183.202 179.746 
7.37381 183.189 179.691 6.92969 183.061 179.416 6.53474 182.938 179.146 
6.40823 182.903 179.063 6.16326 182.87 178.891 6.00538 182.808 178.807 
5.53422 182.673 178.533 5.50757 182.662 178.508 5.3301 182.562 178.347 
5.15318 182.484 178.219 4.96575 182.401 178.128 4.53969 182.228 177.956 
4.10253 182.024 177.813 4.09063 182.021 177.81 3.96724 181.994 177.778 
3.9512 181.989 177.774 3.50663 181.809 177.592 3.11775 181.789 177.432 
3.02143 181.78 177.382 2.14419 181.47 177.145 2.08813 181.454 177.138 
1.84895 181.361 177.069 1.63599 181.307 176.989 1.62378 181.304 176.986 
1.59835 181.3 176.982 1.07845 181.151 176.804 0.777545 181.048 176.727 
0.345443 180.995 176.574 0.0169079 180.898 176.6 -0.773622 180.756 176.436 
-0.784756 180.757 176.433 -1.02667 180.787 176.377 -1.09683 180.774 176.385 
-1.72414 180.635 176.403 -1.89925 180.528 176.452 -2.4064 180.372 176.63 
27.6345 169.133 210.201 27.8498 169.325 210.043 28.0738 169.525 209.783 
28.1156 169.603 209.731 28.143 169.836 209.495 28.3113 170.049 209.18 
28.4763 170.275 208.816 28.4949 170.29 208.783 28.59 170.379 208.668 
28.6084 170.403 208.626 28.6762 170.5 208.378 28.6888 170.551 208.221 
28.7184 170.559 208.091 28.8547 170.71 207.734 28.9293 170.69 207.476 
28.9246 170.692 207.34 28.9552 170.758 207.146 28.9809 170.799 207.052 
28.9932 170.825 207.002 28.999 170.859 206.955 29.0184 170.968 206.74 
29.0178 170.97 206.733 29.0142 170.978 206.706 29.0124 170.982 206.691 
29.0393 171.048 206.484 29.0367 171.085 206.373 29.0267 171.18 206.105 
28.9545 171.325 205.737 28.9535 171.325 205.732 28.8771 171.363 205.56 
28.8161 171.465 205.199 28.8159 171.465 205.198 28.7952 171.449 205.111 
28.7347 171.451 204.789 28.7335 171.482 204.578 28.6299 171.399 204.314 
28.5842 171.428 204.124 28.5838 171.429 204.113 28.4699 171.413 203.803 
28.4502 171.413 203.585 28.3442 171.34 203.238 27.9705 171.087 202.946 
27.9551 171.07 202.936 27.6201 170.992 202.448 27.5635 170.981 202.362 
27.4966 170.975 202.29 27.4922 170.974 202.283 27.396 170.962 202.129 
27.3695 170.953 202.093 27.359 170.951 202.081 27.2765 170.95 201.946 
27.2758 170.949 201.945 27.0294 170.801 201.604 26.9417 170.791 201.485 
26.8733 170.781 201.337 26.6857 170.655 201.085 26.6558 170.642 201.056 
26.4911 170.495 200.945 26.4738 170.479 200.936 26.2708 170.352 200.735 
26.2421 170.319 200.704 26.0508 170.176 200.473 26.0063 170.144 200.447 
25.8125 169.953 200.196 25.6105 169.732 199.954 25.3019 169.449 199.468 
25.2981 169.446 199.465 25.1082 169.299 199.297 25.0029 169.276 199.159 
24.9446 169.251 199.046 24.9271 169.222 198.925 24.9256 169.221 198.92 
24.8543 169.212 198.694 24.7086 169.453 198.308 24.6119 169.685 198.073 
24.5981 169.72 198.028 24.6075 170.201 197.555 24.5715 170.377 197.47 
24.5383 170.761 197.148 24.4474 171.213 196.803 
LINES 4 2069
37 34 33 32 31 30 29 28 27 27 26 25 24 23 22 21 20 19 18 18 17 16 15 14 13 12 11 10 9 8 7 6 5 4 3 2 1 0 
615 34 630 629 628 627 626 625 624 623 622 621 620 619 618 617 616 615 614 613 612 611 610 609 608 607 606 605 604 603 602 601 600 600 599 599 598 597 596 595 594 593 592 591 590 589 588 587 586 585 584 583 582 581 580 579 578 577 576 575 574 573 572 571 570 569 568 567 566 565 564 563 562 561 560 559 558 557 556 555 554 553 552 551 550 549 548 548 547 546 545 544 543 542 541 540 539 538 537 536 535 534 533 532 531 530 529 529 528 527 526 525 524 524 523 522 521 520 519 518 517 516 515 514 513 512 511 510 509 508 507 506 505 504 503 502 501 500 499 498 497 496 495 494 494 493 492 491 490 489 488 487 486 486 485 484 483 482 481 480 479 478 477 476 475 474 473 472 471 470 469 468 467 466 465 464 463 462 461 461 460 459 458 457 456 455 454 453 452 451 450 449 448 447 446 445 444 443 442 441 440 439 438 437 436 435 434 433 432 431 430 429 428 427 426 425 424 423 422 421 420 419 418 417 416 415 414 413 412 411 410 409 408 407 406 405 404 403 402 401 400 399 398 397 396 395 394 393 392 391 390 389 388 387 386 385 384 383 382 381 380 379 378 377 376 375 374 373 372 371 370 369 368 367 366 365 364 363 362 361 360 359 358 357 356 355 354 353 353 352 351 350 349 348 347 346 345 344 343 342 341 340 339 338 337 336 335 334 333 332 331 330 329 328 327 326 325 324 323 322 321 320 319 318 317 316 315 314 313 312 311 310 309 308 307 306 305 304 303 302 301 300 300 299 298 297 296 295 294 293 292 291 290 289 288 287 286 285 284 283 282 281 280 280 279 278 277 276 275 275 274 273 272 271 270 269 268 267 266 265 264 263 262 261 260 259 258 257 256 255 254 253 252 251 250 249 248 247 246 245 244 243 242 241 240 239 238 237 236 235 234 233 232 231 230 229 228 227 226 225 224 223 222 221 220 219 218 217 216 215 214 213 212 211 210 209 208 207 207 206 205 204 203 202 201 200 199 198 197 196 195 194 193 192 191 190 189 188 187 186 185 184 184 183 182 181 180 179 178 177 176 175 174 173 172 171 170 169 168 167 166 165 164 163 162 161 160 159 158 157 156 155 154 153 152 151 150 149 148 147 146 145 144 143 142 141 140 139 138 137 136 135 134 133 132 131 130 129 128 127 126 125 124 123 123 122 121 120 120 119 118 117 116 115 114 113 112 111 110 109 108 107 106 106 105 104 103 102 101 100 99 98 97 96 95 94 93 92 91 90 89 88 87 86 85 84 83 82 81 80 79 78 77 76 75 74 73 72 71 70 69 68 67 66 65 64 63 63 62 61 60 59 58 57 56 55 54 53 52 51 50 49 48 47 46 45 44 43 42 41 40 39 38 37 36 35 
671 34 630 629 628 627 626 625 624 623 622 621 620 619 618 617 616 615 614 613 612 611 610 609 608 607 606 605 604 603 602 601 600 600 599 599 598 597 596 595 594 593 592 591 590 589 588 587 586 585 584 583 582 581 580 579 578 577 576 575 574 573 572 571 570 569 568 567 566 565 564 563 562 561 560 559 558 557 556 555 554 553 552 551 550 549 548 548 547 546 545 544 543 542 541 540 539 538 537 536 535 534 533 532 531 530 529 529 528 527 526 525 524 524 523 522 521 520 519 518 517 516 515 514 513 512 511 510 509 508 507 506 505 504 503 502 501 500 499 498 497 496 495 494 494 493 492 491 490 489 488 487 486 486 485 484 483 482 481 480 479 478 477 476 475 474 473 472 471 470 469 468 467 466 465 464 463 462 461 461 460 459 458 457 456 455 454 453 452 451 450 449 448 447 446 445 444 443 442 441 440 439 438 437 436 435 434 433 432 431 430 429 428 427 426 425 424 423 422 421 420 419 418 417 416 415 414 413 412 411 410 409 408 407 406 405 404 403 402 401 400 399 398 397 396 395 394 393 392 391 390 389 388 387 386 385 384 383 382 381 380 379 378 377 376 375 374 373 372 371 370 369 368 367 366 365 364 363 362 361 360 359 358 357 356 355 354 353 353 352 351 350 349 348 347 346 345 344 343 342 341 340 339 338 337 336 335 334 333 332 331 330 329 328 327 326 325 324 323 322 321 320 319 318 317 316 315 314 313 312 311 310 309 308 307 306 305 304 303 302 301 300 300 299 298 297 296 295 294 293 292 291 290 289 288 287 286 285 284 283 282 281 280 280 279 278 277 276 275 275 274 273 272 271 270 269 268 267 266 265 264 263 262 261 260 259 258 257 256 255 254 253 252 251 250 249 248 247 246 245 244 243 242 241 240 239 238 237 236 235 234 233 232 231 230 881 880 879 878 877 876 875 874 873 872 871 870 869 868 867 866 865 864 863 862 861 860 859 858 857 856 855 854 853 852 851 850 849 848 847 846 845 844 843 842 841 840 839 838 837 836 835 834 833 832 831 830 829 828 827 826 825 824 823 822 821 820 819 818 817 816 815 814 813 812 811 810 810 809 808 807 806 805 804 803 802 801 800 799 798 797 796 795 794 793 792 791 790 789 788 787 786 785 784 783 782 781 780 779 778 777 776 775 774 773 772 771 770 769 768 767 766 765 764 763 762 761 760 759 758 757 756 755 754 753 752 751 750 749 748 747 746 745 744 743 742 741 740 739 738 737 736 736 735 734 734 733 732 731 730 729 728 727 726 725 724 723 722 721 720 719 718 717 716 715 714 713 712 711 710 709 708 707 706 705 704 703 702 701 700 699 698 697 696 695 694 693 692 691 690 689 688 687 686 685 684 683 682 681 680 679 678 677 676 675 674 673 672 671 671 670 669 668 667 666 665 664 663 662 661 661 660 660 659 658 657 656 655 654 653 652 651 650 649 648 647 646 645 644 643 642 641 640 639 638 637 636 635 634 633 632 631 
742 34 630 629 628 627 626 625 624 623 622 621 620 619 618 617 616 615 614 613 612 611 610 609 608 607 606 605 604 603 602 601 600 600 599 599 598 597 596 595 594 593 592 591 590 589 588 587 586 585 584 583 582 581 580 579 578 577 576 575 574 573 572 571 570 569 568 567 566 565 564 563 562 561 560 559 558 557 556 555 554 553 552 551 550 549 548 548 547 546 545 544 543 542 541 540 539 538 537 536 535 534 533 532 531 530 529 529 528 527 526 525 524 524 523 522 521 520 519 518 517 516 515 514 513 512 511 510 509 508 507 506 505 504 503 502 501 500 499 498 497 496 495 494 494 493 492 491 490 489 488 487 486 486 485 484 483 482 481 480 479 478 477 476 475 474 473 472 471 470 469 468 467 466 465 464 463 462 461 461 460 459 458 457 456 455 454 453 452 451 450 449 448 447 446 445 444 443 442 441 440 439 438 437 436 435 434 433 432 431 430 429 428 427 426 425 424 423 422 421 420 419 418 417 416 415 414 413 412 411 410 409 408 407 406 405 404 403 402 401 400 399 398 397 396 395 394 393 392 391 390 389 388 387 386 385 384 383 382 381 380 379 378 377 376 375 374 373 372 371 370 369 368 367 366 365 364 363 362 361 360 359 358 357 356 355 354 353 353 352 351 350 349 348 347 346 345 344 343 342 341 340 339 338 337 336 335 334 333 332 331 330 329 328 327 326 325 324 323 322 321 320 319 318 317 316 315 314 313 312 311 310 309 308 307 306 305 304 303 302 301 300 300 299 298 297 296 295 294 293 292 291 290 289 288 287 286 285 284 283 282 281 280 280 279 278 277 276 275 275 274 273 272 271 270 269 268 267 266 265 264 263 262 261 260 259 258 257 256 255 254 253 252 251 250 249 248 247 246 245 244 243 242 241 240 239 238 237 236 235 234 233 232 231 230 881 880 879 878 877 876 875 874 873 872 871 870 869 868 867 866 865 864 863 862 861 860 859 858 857 856 855 854 853 852 851 850 849 848 847 846 845 844 843 842 841 840 839 838 837 836 835 834 833 832 831 830 829 828 827 826 825 824 823 822 821 820 819 818 817 816 815 814 813 812 811 810 810 809 808 807 806 805 804 803 802 801 800 799 798 797 796 795 794 793 792 791 790 789 788 787 786 785 784 783 782 781 780 779 778 777 776 775 774 773 772 771 770 769 768 767 766 765 764 763 762 761 760 759 758 757 756 755 754 753 752 751 750 749 748 747 746 745 744 743 742 741 740 739 738 737 736 736 735 734 734 733 732 731 730 729 728 727 726 725 724 723 722 721 720 719 718 717 716 715 714 713 712 711 710 709 708 707 706 705 704 703 702 701 700 699 698 697 696 695 694 693 692 691 690 689 688 687 686 685 684 683 682 681 680 679 678 677 676 675 674 673 672 671 671 670 669 668 667 666 665 664 663 662 661 661 660 660 659 658 657 656 655 654 653 652 651 650 649 648 647 646 645 644 643 642 641 961 960 959 958 957 956 955 954 953 952 951 950 949 949 948 947 946 945 944 943 942 941 940 939 938 937 936 935 934 933 932 931 930 929 928 927 926 925 924 923 922 921 920 919 918 917 916 915 914 913 912 911 910 909 908 907 906 905 904 903 902 901 900 899 898 897 896 895 894 893 892 891 890 889 888 887 886 885 884 883 882 

POINT_DATA 962
FIELD FieldData 3
MaximumInscribedSphereRadius 1 962 double
1.3864776916 1.3856026187 1.3931754664 1.3706796267 1.3504270979 1.3501960924 1.3021067299 1.3042827582 1.1991324851 
1.2074404482 1.2093712593 1.214737098 1.2166064984 1.2410324223 1.262728881 1.2909843477 1.2917746779 1.2939148495 
1.2966705736 1.300155119 1.2992306097 1.2986774307 1.3229989337 1.3266543133 1.3275455366 1.3199222922 1.3011333263 
1.2868988435 1.2879626837 1.2367710516 1.2245135845 1.2649098817 1.2917526024 1.3194122615 1.325137392 1.2616074422 
1.2610760659 1.217326088 1.282507437 1.314701271 1.3305858993 1.3427446708 1.3428753945 1.3666612393 1.367936153 
1.3687323435 1.3372362475 1.3389668262 1.3288492773 1.3431710132 1.3366922175 1.3269240354 1.2865729946 1.3094624742 
1.3332212602 1.3081182972 1.2203997032 1.2186435706 1.2282962646 1.2437138259 1.2903520679 1.3260346145 1.326787548 
1.3182632265 1.3125450859 1.1692057865 1.1206777753 1.1458269604 1.1462817182 1.2660375267 1.271821076 1.2732619128 
1.2910467112 1.2889310711 1.2887374047 1.2557344122 1.2554917931 1.2436034581 1.2806104065 1.2964004476 1.3152314116 
1.3147891618 1.3185393335 1.3414679914 1.3489470776 1.3530904997 1.3530163246 1.290192227 1.2898754498 1.2703936502 
1.2712540163 1.3779394168 1.3884123546 1.3940906151 1.393537079 1.4250779047 1.4372451702 1.465559888 1.4664494947 
1.4522334126 1.4582178667 1.4242113476 1.4113375891 1.4004557016 1.3312868003 1.3150538573 1.276209159 1.2759844013 
1.2509369348 1.238425297 1.2360837522 1.2585216237 1.2587344353 1.2587612839 1.1917348242 1.1638694416 1.2234203503 
1.2217973252 1.2087933553 1.2061578092 1.176362016 1.1806359904 1.1601448586 1.1645820369 1.1665699028 1.1529123587 
1.1483584094 1.1361035607 1.1323500458 1.158408201 1.1595440998 1.1781931406 1.1946821593 1.1949189734 1.1976423351 
1.2071026481 1.1985734756 1.1668928154 1.1685306351 1.1105743314 1.0484560007 1.03207802 1.0125199697 0.92206315101 
0.91564753168 0.91502663338 0.8934725924 0.91059133002 0.92146990022 0.98320125398 1.0018415839 0.85190439576 0.86329636923 
0.92700409776 0.95006702873 0.95718043445 0.95770735499 0.91983819861 0.96756625476 0.9684207797 1.060019818 1.0752323177 
1.0733773971 1.0200847411 1.0387395848 1.0385043752 1.0050951047 0.98997417089 0.95658409547 0.95657876431 0.95613983245 
0.91998092404 0.91771377908 0.89074627265 0.90287568522 0.90445920455 0.83738801606 0.89128022219 0.87410187279 0.87411741477 
0.87093484967 0.86528888785 0.90600383481 0.92300140425 0.94015602729 0.94016437141 0.95325634178 0.97356679835 0.98114772523 
1.007393531 1.0119883 1.0108782871 1.0104516448 0.98016958102 0.9833013264 0.95665734213 0.94240443891 0.93213294714 
0.87793799086 0.87818976559 0.88482784255 0.88774728425 0.84680815532 0.83593292498 0.79329371305 0.81188208869 0.81195579882 
0.81802459919 0.80590583838 0.8402553971 0.84398315997 0.88775299191 0.89376550065 0.92317424456 0.93451630639 0.9352983943 
0.97362070201 0.97604660947 0.99694673523 1.0162858895 1.0224132694 1.0548243 1.0753059779 1.1465456936 1.1759875865 
1.1889185805 1.2138261887 1.3349146792 1.3400490994 1.3006559383 1.2992904108 1.2850065456 1.2760288776 1.2778281168 
1.2796521786 1.2101961742 1.2172467872 1.2141445748 1.1852698021 1.1586900328 1.151911437 1.1534388089 1.1427806034 
1.0764097328 1.0733399746 1.0684189757 1.034110832 1.0084501914 1.009343983 0.97544159934 0.90616907532 0.90529308035 
0.89536087091 0.87706216301 0.84990532964 0.84811344235 0.83861124761 0.82254912639 0.82497192141 0.87635345129 0.88017818826 
0.8900414721 0.88385212486 0.87156495009 0.87080396035 0.87056982922 0.88311231789 0.88302782369 0.84157085869 0.82048030329 
0.79910990282 0.80197376516 0.82322853682 0.87302118477 0.87322544119 0.89004255284 0.91369237016 0.91399926368 0.95205406019 
0.94236843821 0.93064503188 0.98284871857 0.98393536507 1.0168064217 1.0312487637 1.0061840617 0.98164298163 0.97548396905 
1.0007809233 1.0124099943 1.0128259546 1.0640257121 1.0990052989 1.1104551694 1.1755196958 1.1821350912 1.2336899234 
1.2510516893 1.2518179548 1.2782829019 1.2946704367 1.2880039035 1.3077651338 1.3139788316 1.2998278404 1.3005928989 
1.3317052802 1.3395375238 1.4609689682 1.4509500339 1.4409572056 1.437504155 1.4006658085 1.4214553963 1.4437436933 
1.4440272249 1.463307352 1.4645407773 1.4714858652 1.5268002808 1.5327657684 1.5345612513 1.5363318572 1.5511098019 
1.6080386886 1.6082498327 1.6185958969 1.6348338907 1.6521640066 1.6570864855 1.7521138598 1.7679832225 1.7674876222 
1.7575333375 1.7570453547 1.7418393242 1.7229086251 1.7214512755 1.7180189447 1.7036560177 1.700940624 1.7131889787 
1.7152460067 1.7391068876 1.774863024 1.7760042813 1.7762426709 1.7827646591 1.783012763 1.7789974237 1.7624889668 
1.7554992723 1.7557526965 1.7359244153 1.733211526 1.713745954 1.6700880139 1.7267607199 1.688467654 1.6872497381 
1.6300655116 1.630124474 1.6213594218 1.6220602855 1.6280773487 1.6162182697 1.6425969414 1.6427830597 1.6581067954 
1.678611636 1.6348744635 1.6038711148 1.5903679959 1.5930367075 1.6138152321 1.6536329791 1.6765178758 1.7128939279 
1.7162134371 1.6684304168 1.6669325998 1.6668859891 1.7050054276 1.7084415109 1.7033458997 1.7014784992 1.7032957854 
1.7056084174 1.711263716 1.7228400799 1.7273167318 1.727564109 1.7264555039 1.7913055488 1.770057427 1.7797880498 
1.7539765255 1.7538576523 1.6983062411 1.6904078636 1.6904076757 1.6903843759 1.7355969541 1.7553128709 1.7810362702 
1.8013914247 1.8010744844 1.7778499111 1.7674555999 1.7828132974 1.782405203 1.743031048 1.7654335659 1.745074753 
1.8167940868 1.6637922662 1.6467560387 1.6257283372 1.5644555316 1.6153142569 1.6181116118 1.5057238476 1.4801855219 
1.4518138018 1.4229749623 1.4494395197 1.4926399401 1.4883675996 1.3878264631 1.3900188402 1.3857146217 1.4193937236 
1.463543524 1.4719100508 1.4715719128 1.5428814115 1.6003074107 1.6537428773 1.7560911025 1.7865742171 1.7986685896 
1.8003344173 1.8943771348 1.9336910023 1.9247605681 1.802205367 1.7831223848 1.7889350716 1.7950693927 1.8377900542 
1.8453975987 1.8515904568 1.8446068292 1.8536080976 1.940076024 1.9588312407 1.9812418518 1.9771431922 1.9605397101 
1.9522507713 1.9531599304 1.9184657293 1.8860623047 1.8451569824 1.8453055337 1.8805845656 1.9011946751 1.9287826205 
1.9252807372 1.919822058 1.8979769662 1.8517845033 1.7941235409 1.7921284828 1.768781633 1.691246383 1.6913336288 
1.7021521105 1.7307076746 1.7308928864 1.6306392759 1.6471599389 1.6521149784 1.6423330742 1.6259749203 1.5979754142 
1.6176371934 1.6209596518 1.6108914416 1.6137931499 1.6143619077 1.6113827712 1.6107074728 1.6074181838 1.6120031161 
1.6156235654 1.591204243 1.6152166303 1.5764644148 1.5648509149 1.5736970837 1.5726365184 1.4984599237 1.500344246 
1.5016357714 1.5406517532 1.5505662471 1.5508441555 1.5525016539 1.5709499879 1.6158993761 1.6186931881 1.6352455975 
1.6465782299 1.6467164842 1.66368658 1.6604760726 1.6032373839 1.4471638646 1.4424160495 1.4422491229 1.4622221776 
1.4694107194 1.4766467892 1.4763172552 1.4732198784 1.3363497364 1.3169645631 1.3204055621 1.3446168944 1.346458167 
1.3464881538 1.2836920558 1.314366824 1.2673135153 1.2652150522 1.2965199132 1.3454641338 1.3419902742 1.2838425115 
1.2742726653 1.3472911207 1.3878356999 1.3463396236 1.3462629699 1.3399518209 1.360858978 1.361540298 1.3529550193 
1.359688077 1.4108059825 1.4289624153 1.4303452085 1.4315581315 1.4350448952 1.4218839611 1.3623219373 1.3597317559 
1.3996268962 1.4132668658 1.4162764507 1.4137895823 1.4262684416 1.4462336905 1.446475504 1.4466594011 1.4740021737 
1.475548229 1.4866195883 1.4734981902 1.4318295768 1.3635259752 1.3533717328 1.3638974269 1.4335201131 1.433716272 
1.4121591706 1.3884911297 1.3891042679 1.3906235355 1.3825392496 1.384017452 1.3930294934 1.39962012 1.4064680689 
1.3985970113 1.4132733906 1.4107725846 1.3524585519 1.3525953944 1.3568396813 1.3590347901 1.3653697466 1.3839171204 
1.3556368963 1.3064203405 1.3048339611 1.2670133396 1.2916161867 1.2842282935 1.215361914 1.2252344251 1.2338184126 
1.2402725992 1.2260458428 1.2256764513 1.2504935229 1.2764369947 1.2789728307 1.2943952797 1.3116577585 1.3124556016 
1.3299546784 1.3354382148 1.3366013759 1.3674853685 1.3914324398 1.3896770962 1.3941145223 1.3942086931 1.3946977579 
1.3896974486 1.3708141737 1.3897054005 1.3918326316 1.3322238118 1.3340972089 1.3401458127 1.3401990809 1.3563633413 
1.3566569581 1.0990066857 1.0932642997 1.0940104528 1.0434202946 1.0409772049 1.0221032445 1.0143762575 0.96421924771 
0.976970301 1.0865357813 1.0899982139 1.0968272724 1.0946558421 1.0996385508 1.1182603282 1.1365868009 1.1789425171 
1.2163217867 1.2195111368 1.2042022141 1.1909901305 1.1974143444 1.1988433487 1.2020240347 1.1879708415 1.1735954398 
1.1605925412 1.1662392346 1.1774136415 1.1926015248 1.1955123032 1.1932738966 1.1730054314 1.1754650003 1.1725543392 
1.1735875232 1.3017023294 1.3020329033 1.2982767865 1.2553287244 1.1781420519 1.1794006128 1.2065945206 1.2416391561 
1.2470167902 1.2121221301 1.3030514654 1.3056778897 1.3048627763 1.2958824916 1.164015218 1.1801288858 1.2872666918 
1.2745569753 1.2817170451 1.3007196825 1.3024177232 1.3028740821 1.260464739 1.2544433871 1.237139329 1.2351909769 
1.1721817776 1.1352724063 1.2094938687 1.2044434941 1.1884026694 1.1275208128 1.1679563764 1.1602571425 1.1574819432 
1.1822104553 1.1898716495 1.1088392766 1.0819024678 1.0660924663 1.068277271 1.1022497288 1.1056229775 1.108722834 
1.1200547934 1.1206526636 1.1574216853 1.1615730767 1.1923694676 1.2169131157 1.2321291932 1.203035527 1.2089919046 
1.2086802157 1.2432994473 1.2457964429 1.2590110985 1.2647567695 1.269833718 1.2611170751 1.2960887343 1.2976640723 
1.2930360192 1.2746973752 1.2219857242 1.2158386084 1.1613116799 1.1665112297 1.1759097317 1.1997702339 1.2084628565 
1.2118937268 1.2173589847 1.2329999356 1.2549944552 1.2649407572 1.2832756571 1.3238260416 1.3203298321 1.3014224389 
1.3016306348 1.2871626041 1.2868702457 1.3108382756 1.3357175806 1.3601955768 1.350056023 1.3520066528 1.3153322059 
1.318604956 1.3287211802 1.3365898102 1.3639004509 1.3972021374 1.4379811286 1.4434770538 1.4599653541 1.6530363503 
1.6534588245 1.7058456346 1.7361335503 1.8197697865 1.8236865256 1.8272773382 1.9234313184 1.9754369785 1.9263239797 
1.8496194068 1.7774193937 1.5389625204 1.5086342241 1.4989019828 1.3817298925 1.3871583222 1.3910977335 1.368400173 
1.3533394453 1.3528344724 1.2957273265 1.2916407396 1.2903109932 1.2477672511 1.2188709676 1.2503759346 1.3138461821 
1.316504783 1.339021973 1.3449855758 1.3432753221 1.3476544769 1.3412656098 1.2656620459 1.2507872434 1.2094904218 
1.2028461755 1.1882180199 1.2004241339 1.2360531057 1.2453544337 1.2715900955 1.2732910103 1.2386612178 1.2934147487 
1.3184934834 1.319852688 1.3163377201 1.3162282772 1.3004423786 1.2861215069 1.2815816305 1.2766610338 1.2238733722 
1.1822535442 1.162706846 1.2296627617 1.2350769858 1.2427664243 1.2463795671 1.2517696123 1.2602021698 1.2695436556 
1.2795525719 1.2784163614 1.2954239506 1.2970744954 1.297904379 1.3035717492 1.3409192975 1.3929882547 1.4159401949 
1.4557345565 1.437236434 1.4752210049 1.4838382648 1.5135257063 1.4989704069 1.4990392493 1.5509793013 1.5506608906 
1.5454617072 1.5213626582 1.5186463212 1.5258608834 1.5074181364 1.4892403986 1.4887900871 1.4921417556 1.5197302317 
1.5232836865 1.5134575912 1.5129734806 1.5062907268 1.5075836039 1.5209825121 1.5235833268 1.6237831805 1.6170161458 
1.6063503174 1.5004897079 1.4982355014 1.5015533955 1.4923467559 1.4923026871 1.4921951444 1.4799741623 1.4778503303 
1.502465741 1.4724496177 1.5263036301 1.5280837215 1.5667602534 1.5532041925 1.4750441063 1.4302055611 1.3192380031 
0.80421087472 0.72130929336 0.62885733224 0.62415796662 0.60089538394 0.55818495289 0.58996233576 0.59939537083 0.56586260861 
0.55744432818 0.52136603351 0.51749436891 0.52013415424 0.58273138774 0.68086897934 0.72167026388 0.72507581914 0.73538897702 
0.74255742715 0.75208521944 0.75223472366 0.7518884589 0.74971370117 0.74854687986 0.71964423324 0.71227784471 0.66823747482 
0.62914967194 0.62883857928 0.62228211824 0.66302399495 0.6630568756 0.66576404902 0.74388680796 0.78895681215 0.8176927167 
0.80586033018 0.80523388633 0.78604500599 0.79270060624 0.83522663317 0.84825882284 0.85298646279 0.76723454688 0.78455772732 
0.7972136164 0.79828676296 0.82160331085 0.8278434631 0.82909799578 0.83902263706 0.83873031221 0.81295971 0.84058015976 
0.86853924425 0.90032732136 0.91230100388 0.93189134189 0.9337604362 0.89454650242 0.8841459629 0.82153965842 0.80924171749 
0.72847569566 0.71494887649 0.79839502795 0.80147519311 0.95240328569 1.0141021749 1.0684417847 1.1095158214 1.1107423133 
1.1708404146 1.1757931469 1.1632324541 1.1562072403 1.0353338709 1.011310465 0.96934050656 1.0881116912 
EdgeArray 2 962 double
1136 1136 1114 1114 811 811 602 602 911 
911 908 910 888 888 901 901 798 798 
799 801 799 748 696 697 671 697 671 
759 786 773 787 776 761 776 761 761 
762 762 702 702 705 767 705 785 686 
783 685 686 411 685 682 569 570 570 
580 580 583 583 521 521 327 327 424 
424 425 128 425 425 376 376 4750 4750 
4475 4750 4475 4475 4714 4714 3899 3899 4816 
4816 4812 4814 4433 4814 4848 4848 4599 4284 
4553 4553 4820 4820 5083 5083 4941 4941 4940 
4940 4959 4218 4939 4218 4942 4942 5173 5173 
5129 5129 5319 5068 5323 5323 5414 5257 5234 
5408 5234 5395 5395 5395 3209 5394 5293 3209 
5331 5331 5423 5423 5455 5455 5491 5494 5587 
5587 5586 5585 5609 5610 4684 5610 4684 5118 
5118 5582 5582 5444 5236 5236 5636 5636 5635 
5636 5635 5635 5626 5626 5541 5065 5093 5065 
5702 4951 5706 5702 5706 5706 5750 5750 5754 
5754 5752 5698 5668 5668 5712 5668 5712 5712 
5761 5712 5761 5761 5758 5544 5876 5876 5877 
5883 5959 5883 5960 5960 5970 5971 5971 5969 
5523 5523 5940 5940 4130 5452 6049 6049 6155 
5564 6096 5660 4676 6096 6184 6184 6183 6183 
6020 6020 6120 6120 6132 6132 6170 6169 6169 
6240 6240 6240 6326 5427 6327 6238 6174 6011 
5665 6174 5665 5665 6312 5806 6310 6310 6360 
6360 6412 6412 6418 6418 6468 6468 5521 5521 
6549 6549 6550 6550 6605 6591 6458 6458 6610 
6610 4910 6475 6606 6606 6749 6606 6749 6749 
6754 6754 4510 4510 6581 6581 6731 6731 6989 
6990 6991 6990 6991 6499 6719 6719 6864 6868 
6863 6863 6976 6863 6976 6976 6862 6862 6962 
6965 6965 6965 7092 7092 7087 7087 7078 7079 
7076 7077 7076 6932 6931 6932 7057 6804 7102 
7102 6810 6810 6145 6942 7164 7164 7167 7167 
7061 7061 7162 7162 7038 6927 6927 7044 7142 
7142 7242 7218 7241 7241 7244 7241 7244 7244 
7198 7198 7197 7302 7300 7300 7353 7353 7354 
7355 7310 7310 7290 7290 7457 7190 7284 7277 
7344 7277 7460 7460 7446 7446 7449 7451 7317 
7317 7510 7510 6766 7466 6521 5864 7465 5864 
7605 7179 7712 7713 7711 7713 7711 7709 7708 
7708 7330 7330 7719 7719 7716 7716 7783 7783 
7791 7791 6580 7765 7847 7847 7694 7630 7846 
7846 6642 7901 7018 3669 7954 7954 7646 7954 
7646 7646 7399 7399 8080 8080 7950 8121 8243 
8152 8243 8239 8249 8248 8245 8245 7963 8245 
7963 7963 8231 7963 8231 8231 8302 8302 8303 
8303 8224 8109 8224 8224 6266 8087 8300 6266 
8425 8300 8425 8359 8531 8531 8532 8530 8743 
8736 8817 8817 8819 8819 8833 8833 8836 8836 
8644 8644 8979 8979 8746 8976 8745 8745 8869 
8869 8627 8772 8873 8873 8872 8999 8998 8998 
8997 8997 8895 8895 8894 8590 8905 8903 8890 
8899 8785 8672 8776 8776 8777 8777 8675 8675 
8557 8557 8683 8683 8566 8566 8462 8462 8463 
8463 8697 8697 8586 8588 8467 8467 8254 8254 
8491 8491 8496 8496 8505 8505 8497 8502 8482 
8482 8393 8403 8393 8330 8285 8285 8257 8162 
8256 8161 8287 8270 8293 8287 8293 8293 8292 
8293 8292 8292 8267 8267 8165 8267 8165 8165 
7821 8012 7800 7800 8025 8025 7924 8025 7924 
7924 7502 7974 7987 7987 7989 7989 7990 7919 
7937 7937 7807 7879 7877 7731 7873 7873 7872 
7871 7823 7823 7730 7730 7338 7497 7170 7170 
7669 7579 7579 7571 7670 7670 7577 7577 7576 
7576 5398 5398 7325 7325 7176 7176 7424 7176 
7424 7424 7418 7418 5267 5267 6206 7017 7017 
5815 5815 5815 7002 7002 6113 6113 6890 6890 
6895 6895 6552 6552 6693 6693 6686 6686 6674 
6674 6683 3639 3639 6632 6632 6566 6628 6471 
6572 6572 6570 6572 6570 6570 6313 6314 6317 
6317 5340 6292 6315 6315 6281 6279 6280 6279 
6027 6027 6026 6026 6112 2756 4927 6058 5266 
6058 6052 5266 5466 6052 6070 6070 6071 5809 
5809 5735 6080 6081 6085 6086 6086 6087 5776 
6087 5776 5448 5448 5732 5887 5887 5435 5435 
5835 5835 5024 5684 5900 5900 5904 5904 5832 
5832 5657 5657 5720 5720 5599 5097 5066 5599 
5571 5547 5560 5559 5561 5561 5562 5484 5486 
5486 5208 5477 4963 4963 3929 4963 3929 3929 
4642 4642 4387 5296 4779 4779 5303 4508 5106 
4508 5106 4986 5108 5108 5006 2870 5006 5006 
5163 5159 5250 4880 5162 3385 4994 5162 5139 
5139 5141 5141 5049 5045 5046 5046 5062 5050 
5061 5061 4920 4920 5025 5031 5025 4267 4682 
5026 4681 4681 3933 3933 3927 4402 4265 4265 
4423 3352 4424 4423 3403 4417 4205 4205 4314 
4205 4314 4314 4435 4435 2965 4207 4207 4207 
4302 4302 4303 4209 4326 4326 4328 4328 3600 
3600 3263 3772 3766 3766 4047 4047 2606 2606 
3819 3819 2643 3127 3474 3632 3635 3474 3131 
3131 3483 3280 3282 3280 3129 3129 2621 2621 
2624 2624 2746 2742 2500 2742 2500 2500 2497 
2497 2503 2503 2488 2488 1028 1028 2753 2753 
2754 2754 3095 3095 3077 3094 3093 3093 2789 
2789 3121 3121 2771 2771 3054 3054 3488 3498 
3503 3498 3499 3499 3611 3611 3615 3620 3107 
3107 3607 3434 3240 3009 3803 3240 3410 3410 
4053 4053 3792 3063 3792 3792 3793 3793 2858 
2858 3755 4010 4008 4008 3992 3758 2662 2662 
4011 4011 3594 3594 3205 3205 4171 4171 4169 
3220 3220 4161 4155 4152 4155 3956 3956 4142 
4146 4146 3935 3935 3379 3379 2717 2717 2587 
2587 3369 2719 3370 3683 3005 3005 3667 3005 
3667 3667 3675 3675 3562 3562 3358 3358 3347 
2588 3347 3345 3553 3553 3554 3554 2993 2993 
3538 3538 3540 3540 3541 3541 3525 3524 3524 
3523 3324 3523 3324 3520 3520 3520 2836 2836 
2523 2523 2976 2976 3327 3327 2824 2824 3177 
3177 2471 2471 2804 2804 3165 2806 968 2939 
968 2670 2672 2672 2383 2384 2810 2810 2812 
2811 778 2677 2462 2462 2513 2518 2514 2517 
2457 2517 2458 2515 1387 1387 2122 2327 2237 
2237 2330 2330 2310 2337 2337 2338 2340 2340 
2276 2339 2276 2276 626 626 2280 2280 2242 
2242 1877 1877 2251 2250 2250 2250 2150 2150 
2173 2173 2187 2187 1649 1649 2211 2212 2169 
2169 2205 2205 2109 1969 2172 2172 2161 2160 
2161 2166 1997 2147 2112 2112 2101 2101 2086 
2101 2086 2086 1929 1929 2080 2059 2048 2048 
2047 2047 1269 1854 2024 2025 2024 1727 1727 
1857 1811 1811 1989 2007 1794 1794 1990 1990 
1952 1951 1956 1951 1956 1812 1921 1920 1914 
1915 1914 1862 1862 1862 964 964 1788 1788 
1826 1723 1847 1847 1722 1722 1836 1836 1212 
1742 1738 1738 1759 1759 1765 1765 1764 1764 
1754 1754 1294 1294 1300 1304 1769 1766 1771 
1771 1767 1508 1345 1501 1247 1501 1503 1247 
1504 1504 1403 1403 1420 1402 256 256 1556 
1556 1413 1361 1418 282 1558 1275 1019 1019 
1426 1426 1178 976 1181 1178 1181 1053 1179 
1011 1179 1013 934 934 904 904 666 666 
733 819 733 842 842 846 843 846 843 
843 844 236 640 640 96 610 616 619 
278 278 186 532 186 463 463 463 468 
467 468 466 164 164 438 438 454 454 
457 457 167 167 436 436 433 433 407 
407 444 408 405 405 400 400 401 401 
398 381 11651 11651 11211 7004 11635 11859 11332 
10710 11742 11741 11608 11742 11351 11351 9966 11482 
11631 11320 11618 11632 11620 11618 11311 11192 11309 
11453 11455 11455 11179 11456 11449 11179 11450 11449 
11193 11193 11172 11172 10992 10992 11307 11157 11158 
11157 11158 11158 11168 11159 11013 11013 11019 11019 
10861 10861 10993 10798 10993 10997 10998 10997 10872 
10872 10874 10874 10860 10860 10858 10399 10782 10782 
10593 10782 10593 10593 9774 10659 10644 10638 10647 
10643 10497 10497 10573 10573 10492 10492 10326 10635 
10576 10575 10487 10481 10480 10480 10310 10313 9882 
10071 10293 9557 10089 10089 9877 9398 7261 7261 
10295 9969 10289 10289 10286 10286 10284 10282 10282 
10282 10211 10211 10197 10257 10206 10206 10262 10262 
10194 10194 10186 10186 10017 10017 9276 9276 10146 
10146 10023 10023 10024 8768 10122 9989 9989 9987 
10133 10133 10126 10126 10461 10461 10447 10459 10346 
10354 10415 10354 10238 10415 9610 9949 9610 10229 
10229 10229 10092 10229 10092 10092 10463 10431 10463 
10463 10568 10462 10568 10569 10052 10052 10464 10464 
10339 9876 10533 10533 10725 10628 10749 10749 10668 
10951 10604 10789 10669 10669 10944 11125 11422 11125 
11422 4498 10895 10895 10774 10774 10854 10854 11292 
11292 11920 11920 11898 11898 11942 11942 11940 11940 
11805 11805 12127 12127 12261 11290 12126 12126 11706 
11434 12143 12274 12352 12352 12535 12535 11558 11558 
12253 12253 12518 12520 12367 12518 12525 12525 12522 
12522 12045 12373 12414 12046 12414 12163 12426 12426 
12424 12419 12419 12419 12301 12165 12301 12301 12164 
12069 12297 12298 12299 12298 12299 10330 10330 10330 
12283 10330 12283 12283 12169 12282 12171 12280 12171 
12171 11845 12171 11845 11845 10757 10757 11280 11280 
11286 11285 11282 11282 10957 10952 10953 10953 10766 
10766 8641 8641 10553 10755 10344 9638 10540 10540 
10541 10307 10307 10307 9321 9321 9791 9839 9791 
9791 10114 10114 10113 10113 10093 10093 9470 9835 
9835 9590 9788 9787 9790 9787 9790 9790 9200 
9200 6639 6639 9492 9492 7752 9615 9716 9716 
3764 9721 9603 9603 9684 9684 9538 9538 9679 
9679 9194 9194 9665 9662 9663 9663 9632 9632 
9651 9651 9652 9652 9629 7423 7423 9605 9479 
9479 9602 9562 9016 9016 9571 9572 5433 5433 
9288 9288 9506 9506 9510 9510 9340 9505 9503 
9285 9427 9427 9476 9488 9318 9387 9234 9318 
9433 9439 9440 9439 9440 9402 9403 9402 8711 
9403 9389 9389 8908 8908 9360 9361 9363 9364 
9366 9366 9286 9286 8542 9256 9256 9256 9243 
9243 3261 9154 4096 6662 9214 9214 9065 9219 
8593 8816 9225 9225 8920 8920 8968 8968 8915 
9186 9145 9187 9176 9176 9175 8916 9174 9174 
9138 9141 9143 9143 9124 9124 9122 9122 9127 
9122 9127 9127 9088 9128 9087 9087 9036 9036 
9037 8931 7864 7864 9029 8919 9025 9026 8934 
8933 8933 8935 7594 8935 8416 8416 8733 8733 
8730 8730 8409 8409 8808 8808 8814 8808 8814 
8814 8632 8632 8509 8509 8526 8526 8736 8736 
13209 13209 13210 13210 13163 13163 9642 9642 13150 
13150 13140 13140 13076 13076 13085 13085 13072 13096 
13082 13059 10855 10855 12891 12891 13051 13049 12756 
12926 12926 13028 13024 13024 13017 12801 12985 12801 
12985 12985 12972 12972 12850 12857 12844 12850 12844 
12842 12842 12842 12886 12886 12942 12942 12731 12731 
12829 12829 12906 12877 12831 12831 12582 12582 12833 
12582 12833 12833 12837 12835 12835 12834 12817 12818 
12822 12818 12822 12822 12791 12791 12787 12786 12762 
12794 12676 12676 12633 12289 12306 12306 12725 12638 
12747 12747 12746 12747 12746 12746 12710 12687 12710 
9982 12647 12647 12396 12652 12390 12390 10891 12468 
12662 12662 12276 12276 12667 12667 12461 12461 12640 
12085 12616 12616 12440 12614 12497 12497 12494 12494 
12499 12499 12345 12345 12196 12196 12329 12196 12329 
12329 12222 12222 12207 12200 11483 11483 10335 11483 
10335 10335 11711 11711 11621 11621 3914 3914 11319 
11319 11322 11322 11320 11320 11617 11617 
EdgePCoordArray 1 962 double
0 0 0 0 0 0.996 0 0 0 
0.668 0.248 0.908 0.956 0.876 0.676 0.9 0.832 0 
0 0 0.144 0.1 0.12 0.508 0.956 0.42 0 
0 0 0 0 0 0.548 0 0 0 
0.988 0 0 0 0 0.908 0.976 0 0.296 
0 0 0 0 0 0.584 0.64 0 0 
0 0.964 0 0.332 0.136 0.22 0 0.136 0.956 
0 0 0 0.024 0 0.016 0.48 0.088 0.024 
0.096 0.66 0 0 0.98 0 0 0.208 0.34 
0.164 0.888 0 0 0 0.932 0 0.984 0 
0.992 0 0.956 0 0.28 0.364 0 0.944 0.16 
0 0 0.704 0 0.74 0.356 0.58 0 0 
0 0 0 0.988 0.076 0 0.888 0.4 0.052 
0.804 0 0.988 0 0 0 0 0 0 
0 0 0.252 0 0 0.544 0 0.92 0 
0 0 0 0 0.676 0.324 0.38 0 0.876 
0 0.972 0 0 0.088 0 0 0 0.924 
0.264 0.608 0.868 0.884 0 0 0.996 0 0 
0 0 0.548 0.832 0 0.576 0 0.988 0 
0 0.004 0 0 0.376 0 0 0.86 0.664 
0.304 0 0 0.504 0 0 0.148 0.616 0.756 
0.416 0.764 0.128 0.004 0 0 0 0 0 
0 0.912 0 0.984 0 0.076 0.58 0 0.988 
0 0 0 0.028 0.136 0.004 0.768 0 0.98 
0 0.896 0 0 0 0.648 0 0.676 0.216 
0.804 0.188 0 0.648 0.632 0 0 0 0 
0 0 0.98 0 0 0.392 0 0.56 0 
0 0 0.056 0.928 0.084 0.048 0 0 0 
0 0 0 0 0 0 0.048 0 0 
0 0 0 0.992 0 0.052 0.052 0 0.976 
0.184 0.264 0.752 0 0.988 0 0 0.992 0 
0.124 0 0 0.968 0 0.26 0 0 0.056 
0 0.132 0.892 0 0.296 0 0 0.932 0 
0.876 0.128 0 0 0 0 0 0 0.976 
0 0 0 0.6 0.744 0 0 0 0 
0 0 0 0 0 0.948 0.16 0.544 0.808 
0 0.98 0 0.44 0 0.24 0 0.704 0.796 
0 0 0.432 0.948 0.812 0.804 0.168 0 0.388 
0.02 0.688 0.288 0.848 0.696 0.904 0.016 0 0 
0 0.228 0 0 0 0 0 0.092 0.928 
0.036 0.996 0 0.136 0 0.768 0 0.988 0 
0 0.672 0 0.852 0.616 0.344 0 0.704 0 
0.964 0.496 0.068 0.904 0 0 0.052 0 0.924 
0 0 0.888 0.164 0.804 0 0 0.748 0 
0.004 0.996 0.584 0 0.992 0 0 0.332 0 
0 0.004 0 0 0 0.004 0 0 0 
0 0.708 0.156 0.824 0 0.804 0.844 0 0 
0 0.884 0.704 0 0 0 0 0 0 
0 0 0.876 0 0 0 0 0 0.244 
0.488 0 0 0.076 0 0.996 0.036 0.908 0 
0 0.756 0 0 0 0.452 0 0.624 0 
0 0 0 0 0.828 0.16 0.14 0.384 0.864 
0 0 0 0 0 0.824 0.1 0 0.992 
0 0 0 0 0.276 0.184 0 0 0 
0 0 0 0.876 0.22 0.02 0.16 0 0 
0 0 0 0 0 0 0 0.244 0.036 
0.032 0 0.852 0 0.444 0.592 0 0.108 0.44 
0.3 0.16 0 0.204 0 0 0.992 0.04 0 
0.572 0 0 0 0 0 0.02 0 0 
0 0 0 0.856 0 0 0.5 0 0.3 
0.604 0.232 0 0 0.988 0 0 0.968 0 
0 0.304 0.464 0.228 0.008 0 0.152 0 0 
0.676 0.664 0.752 0.664 0.592 0.98 0 0 0 
0.252 0 0 0 0.248 0 0 0 0 
0 0 0.188 0.108 0 0.148 0.8 0.62 0.848 
0 0 0.94 0 0 0.876 0.832 0.784 0 
0 0.048 0.944 0.352 0.268 0.996 0 0 0 
0.968 0.656 0.548 0.544 0 0.028 0 0.96 0.984 
0 0.32 0.02 0 0.16 0.368 0 0 0 
0 0 0 0 0 0.988 0 0 0 
0.032 0 0.084 0.016 0.868 0.384 0.36 0 0.204 
0.528 0.068 0.972 0.828 0.548 0 0.648 0.872 0.228 
0 0 0 0.6 0.196 0 0.704 0 0 
0 0.924 0.596 0.004 0 0 0 0.08 0 
0.992 0 0.004 0.128 0.912 0 0 0 0.22 
0.312 0.652 0 0.268 0.2 0.988 0 0.068 0 
0.524 0 0 0.784 0 0 0.372 0 0 
0 0 0 0 0 0 0.692 0.832 0.116 
0 0 0 0.212 0.92 0.808 0.156 0.036 0.192 
0 0.984 0 0.968 0 0.728 0.78 0 0 
0.004 0 0.892 0 0.024 0.884 0 0.968 0.908 
0.672 0 0 0 0 0 0 0 0 
0 0 0.632 0 0.284 0.02 0 0 0 
0 0.092 0.896 0 0 0.692 0.112 0.076 0 
0.144 0 0.948 0 0.208 0.728 0.404 0.076 0 
0.992 0 0.916 0.06 0 0.964 0 0 0 
0.948 0 0.58 0 0 0 0.488 0.032 0 
0.972 0 0 0.036 0 0 0 0 0.72 
0.112 0.544 0.388 0 0 0 0 0.24 0 
0.156 0 0 0 0 0 0.884 0 0 
0 0 0.972 0.008 0 0.308 0 0.032 0 
0 0 0 0.196 0.732 0 0.124 0.748 0.736 
0.664 0.5 0.936 0.688 0.9 0 0 0.844 0.204 
0 0 0.644 0 0 0.28 0.796 0 0.984 
0.9 0 0 0 0.964 0.628 0 0.068 0 
0.576 0 0 0 0.912 0 0.984 0 0 
0.068 0 0.38 0.452 0.856 0.376 0.968 0 0 
0 0 0 0.956 0 0 0 0 0 
0 0 0 0 0 0 0 0 0.54 
0.464 0 0 0.076 0.12 0.628 0 0.856 0.416 
0 0 0.552 0.168 0.648 0 0 0 0 
0 0.988 0 0 0.988 0 0.48 0.4 0.656 
0.06 0 0 0.98 0.208 0 0.096 0 0.692 
0 0.956 0 0.344 0.036 0 0.996 0 0.32 
0 0 0 0 0.036 0 0.032 0 0 
0 0 0 0.98 0 0 0.956 0 0.98 
0 0 0 0 0 0 0 0 
