# vtk DataFile Version 4.2
vtk output
ASCII
DATASET POLYDATA
POINTS 521 float
68.3802 146.354 15.7816 68.655 146.536 15.939 68.8504 146.236 15.8097 
67.9207 146.305 15.7807 67.1063 146.445 15.8548 67.1758 146.498 15.8354 
67.0416 146.513 15.9036 68.4683 146.127 15.7767 68.1458 146.063 15.8207 
67.7125 146.146 15.9086 67.0496 146.447 15.9607 69.9264 146.534 16.2894 
70.0107 145.994 16.1017 69.1888 146.353 15.9079 69.8119 146.06 16.0201 
68.0984 145.932 15.9465 67.8719 145.939 16.1001 67.51 146.124 16.2285 
67.0814 146.52 16.0815 69.0423 145.383 16.4184 68.3502 147.085 16.7346 
68.6972 147.202 17.0259 68.9244 147.035 16.5346 70.2976 146.276 16.3263 
70.5805 146.127 16.5084 69.172 147.102 16.6995 70.2373 145.971 16.2711 
67.3595 146.304 16.5816 67.1795 146.489 16.3384 69.8636 145.456 16.4351 
68.7015 145.387 16.5517 68.2997 145.572 16.5654 69.2092 145.224 16.6922 
68.8835 145.268 16.6993 70.8731 146.252 16.7527 71.0513 146.528 17.0304 
71.2038 145.813 17.0207 71.0046 146.903 17.3794 70.0848 147.062 16.9361 
68.1897 147.096 17.2688 67.6835 146.801 16.8232 67.3389 146.554 16.6101 
67.4834 146.481 16.9927 67.8943 145.913 17.4888 68.801 145.194 17.8274 
69.2265 145.112 17.0457 69.179 147.253 17.4221 69.4371 147.248 18.454 
68.6257 147.191 17.2949 71.4298 146.306 17.1918 71.0694 147.086 18.033 
67.6505 146.672 17.3452 67.5807 146.415 17.3733 71.4907 146.015 17.1883 
72.055 146.253 17.7904 67.7117 146.267 17.6129 72.1947 144.343 18.3213 
69.6937 144.904 17.4235 68.3954 146.834 18.3478 67.6817 146.536 17.6356 
67.939 146.457 18.1444 68.0341 146.704 18.1044 71.89 145.645 17.588 
72.189 145.908 17.8356 68.4742 145.469 17.7895 69.1966 144.91 17.8651 
71.0195 144.266 18.0893 70.2691 144.336 18.0565 72.291 146.526 18.71 
72.2187 146.284 18.0751 72.4016 145.948 18.0806 72.4546 146.134 18.2543 
68.206 145.935 18.1698 68.0425 146.314 18.2522 72.6483 145.288 18.3206 
68.4791 145.539 18.2248 69.6246 144.403 18.3839 68.9387 144.862 18.7448 
71.7208 144.188 18.2641 70.2856 147.261 18.596 69.0517 147.023 19.1401 
72.3314 146.374 18.3746 72.1283 146.903 19.7753 68.0913 146.563 18.3107 
68.2609 146.42 18.5145 68.3471 145.974 18.605 68.5313 145.541 19.0328 
72.7961 144.474 18.5732 73.1538 145.426 18.8522 70.8689 143.062 20.0167 
72.874 146.246 19.2622 73.4597 145.903 19.5976 68.7298 145.158 19.1055 
73.1593 143.76 19.1664 69.4602 144.39 18.8018 72.176 143.064 19.5739 
71.6631 147.023 19.7058 68.6107 146.176 19.662 68.5798 145.823 19.6479 
73.5251 145.691 19.4953 73.3133 145.331 19.0319 73.6781 144.875 19.4954 
73.2821 143.701 19.2859 72.9953 143.448 19.3431 70.8937 147.086 20.4619 
73.47 146.232 20.2086 68.8074 146.36 19.9201 74.1026 143.6 20.1829 
73.4498 143.707 19.467 70.0359 143.615 20.4885 69.3836 146.369 20.78 
69.1961 145.763 20.9356 73.5316 142.83 20.1313 73.9123 143.108 20.2136 
71.9561 147.126 21.0622 72.6236 147.027 20.9552 73.1101 146.745 20.7103 
73.4123 146.542 20.7333 74.475 144.178 20.6232 74.464 143.657 20.6002 
72.776 141.635 21.3768 71.6154 147.061 21.6582 69.9849 146.315 21.9851 
74.4897 145.896 21.6964 74.986 145.375 21.987 69.6254 144.411 21.4805 
75.0298 143.544 21.4011 74.4574 142.847 20.8339 75.0012 143.085 21.3996 
74.3446 142.563 20.8601 70.4492 143.057 21.2146 69.7118 146.017 21.9882 
70.7233 142.791 21.7731 69.8025 144.057 21.6025 73.3504 141.289 21.9566 
72.4966 147.066 22.1748 73.8099 146.435 23.6545 74.2022 146.39 22.7474 
70.9331 146.779 22.1263 74.7909 145.722 22.0126 69.6143 145.324 22.0563 
69.7863 144.591 22.2779 70.1268 143.864 22.2255 76.0598 142.605 22.767 
74.9783 142.285 21.6238 75.4565 141.537 22.4424 71.4541 141.881 22.1356 
69.6823 145.772 22.1205 75.075 145.515 22.35 74.9747 141.026 22.6214 
72.6193 141.008 22.7227 73.2774 145.948 24.6872 72.0175 145.924 24.374 
70.8233 146.476 22.8097 74.7742 145.844 22.2834 70.0919 146.077 22.5335 
69.7765 144.852 22.3983 69.8736 145.035 22.5916 71.0776 142.219 23.3533 
71.103 142.101 22.9712 76.1475 142.109 22.9095 70.0973 145.117 22.8678 
70.7069 144.09 23.6629 71.8097 142.45 25.6221 76.3239 142.216 23.1434 
75.6708 141.584 22.6084 71.3434 141.833 22.7439 75.2037 140.977 22.7723 
72.3843 141.068 22.877 72.0354 141.288 22.9695 71.1856 145.935 23.8396 
77.2681 140.027 24.7615 76.0765 140.742 23.379 75.4296 140.563 23.1805 
75.8079 140.578 23.3156 72.8475 140.478 23.6911 75.3893 139.336 24.3294 
74.2065 138.844 25.1126 71.2627 144.625 24.5427 75.5889 145.053 24.8877 
77.5793 141.559 25.0737 72.2195 140.956 24.078 72.5593 140.691 23.758 
76.5508 140.085 24.078 74.2741 145.95 24.4056 75.041 145.435 24.8128 
74.6328 145.795 24.3538 73.9792 145.986 24.5063 73.6158 146.069 24.4632 
72.9062 145.777 24.8728 76.5084 143.656 24.4649 77.7581 141.063 25.4424 
72.8491 140.786 27.2689 77.0583 139.958 24.5341 73.2152 139.337 26.0757 
76.8518 139.67 24.5611 77.0596 139.336 24.9005 73.6137 139.573 24.5876 
75.0621 145.361 25.0888 75.3017 145.276 24.9089 74.3157 145.318 25.6518 
72.1384 144.69 25.5107 77.7403 139.909 25.4258 76.8103 138.764 25.137 
74.9872 138.563 25.1292 74.5581 145.388 25.4435 74.9175 145.326 25.3505 
76.3442 144.088 26.37 76.6842 143.806 25.3757 77.6607 142.075 25.7074 
77.2681 139.399 25.0648 74.7216 137.735 26.2029 74.7022 138.197 25.5748 
74.1381 145.012 26.0925 72.7109 144.89 25.8259 72.5562 143.048 26.7633 
77.0863 143.257 26.5349 78.0115 140.87 25.9662 77.9594 140.608 25.7733 
72.8881 140.012 26.6991 78.306 139.902 26.2481 77.4086 138.299 25.6846 
74.3864 138.172 25.8421 74.0431 138.439 25.8555 76.6635 135.831 27.4482 
73.6778 144.789 26.2818 76.2022 142.947 28.2258 72.7942 144.388 26.2962 
76.6199 143.919 26.0883 77.7087 142.077 26.0932 78.0527 141.407 26.8179 
74.5245 137.391 27.2421 75.3904 144.271 26.8645 73.4262 144.505 26.4926 
72.4144 142.668 26.6911 78.5059 140.278 26.6833 78.4711 140.056 26.5095 
72.9784 140.211 27.518 73.0064 139.688 27.1432 79.2009 135.65 28.1213 
79.0391 137.54 27.3036 77.7023 136.196 27.1589 76.6617 143.255 27.4687 
77.4019 142.526 27.5418 77.9471 141.427 29.1488 72.9359 140.008 27.2858 
79.0046 139.519 27.3026 76.3363 135.055 28.3378 76.9161 143.044 27.5098 
73.6161 142.887 27.6511 78.8724 139.904 27.3134 74.5272 137.24 27.6547 
76.5228 143.114 27.8193 75.0264 141.275 29.6943 77.619 142.181 27.7247 
79.0204 140.211 29.0759 78.9312 140.103 27.8868 78.9389 139.99 27.6019 
73.5888 139.005 28.4502 77.3253 142.073 28.9134 79.7672 134.562 29.0233 
75.7277 135.182 28.9399 78.4212 134.297 28.7134 76.8505 142.254 28.9738 
81.1402 137.294 31.6412 74.6831 136.467 29.1708 77.9323 133.903 29.0949 
77.1516 142.126 29.0061 77.3054 141.922 29.1268 78.7371 140.528 29.7373 
74.14 138.633 29.4385 81.1758 134.752 30.4002 75.5884 135.217 29.2979 
75.9934 135.015 28.7969 76.8855 134.336 28.9911 78.2118 134.013 28.9363 
77.4379 141.573 29.5863 77.7833 141.369 29.5511 74.3459 137.688 29.7804 
81.0542 135.418 30.1571 80.292 134.116 29.6317 79.7737 133.984 29.3606 
77.1613 141.606 29.7029 76.9313 141.511 29.865 77.6936 141.091 30.1228 
75.0415 140.272 30.274 79.1425 140.002 30.7681 79.3377 139.986 30.1061 
74.6752 137.895 30.7666 74.6025 136.761 30.0794 74.6662 136.519 29.8852 
75.6022 135.147 29.7557 78.7011 132.47 30.4654 77.8945 132.256 31.1005 
76.1395 140.972 30.3385 78.329 140.235 31.0145 75.9281 140.403 30.7761 
74.9026 139.699 30.4957 74.4339 137.635 30.1463 74.7212 137.09 30.6201 
75.0722 136.258 30.5867 74.6544 136.894 30.3486 80.8028 134.091 30.1161 
76.2516 133.745 31.5709 79.8833 132.895 30.1677 79.6249 132.7 30.273 
75.5958 135.165 31.0959 81.1421 133.403 30.7406 80.8406 132.897 30.6886 
79.8893 132.067 30.8843 79.4328 139.338 32.01 80.3089 138.807 31.2135 
75.6503 138.225 31.8692 80.5433 138.385 31.7 74.8978 137.202 30.9372 
75.0616 137.357 31.2557 82.3464 133.974 32.2816 81.3531 133.365 30.9779 
78.1525 131.658 32.0544 75.9687 139.474 31.4612 75.1436 137.606 31.4201 
75.4868 136.03 31.7446 81.7091 135.184 31.6857 75.7707 134.813 31.9117 
76.8299 132.899 31.5957 81.0515 131.874 31.3809 79.8655 131.152 31.9538 
77.9502 138.889 32.8684 80.0254 138.994 31.7945 80.1285 138.785 31.9926 
79.8764 138.474 32.7947 75.836 136.161 32.635 75.8778 135.627 32.6259 
82.4206 131.699 32.1502 80.9119 131.012 32.2204 79.1014 131.235 31.9417 
77.1761 137.885 33.4919 81.732 135.856 32.7334 75.5807 135.939 32.0708 
82.0835 134.506 32.1477 83.4833 133.668 33.3321 76.6661 133.411 32.9947 
82.7929 133.051 32.4642 76.8897 132.734 32.3459 78.865 131.263 32.0846 
78.5179 131.421 32.1706 79.029 138.719 33.0122 77.3788 137.035 34.134 
81.7401 135.889 33.9433 82.271 134.76 32.661 76.7808 133.051 32.8916 
84.3442 132.428 33.2567 76.8726 132.813 32.6909 83.1565 131.821 32.5043 
77.7948 131.871 32.7608 83.6302 130.838 32.8167 79.6678 130.928 33.291 
82.7114 130.434 32.9747 78.2435 138.81 33.0183 83.5209 133.351 33.1766 
76.9677 132.87 33.0024 77.2531 132.49 32.9848 84.3305 130.901 32.9193 
77.8673 131.911 33.1015 82.0489 130.045 33.5276 81.71 130.107 33.507 
81.2855 130.12 33.8792 80.3651 137.257 33.9904 79.0253 138.477 33.2994 
77.572 138.32 33.3371 76.8356 135.769 33.953 82.5443 135.068 33.7428 
77.8841 133.791 34.6914 82.7684 134.729 33.5249 76.7497 133.499 33.2834 
77.419 133.151 33.8763 83.9082 133.498 33.57 77.4129 132.82 33.6169 
84.8969 132.137 33.4051 86.5457 130.897 33.4758 85.0472 130.688 33.1647 
84.7608 131.242 33.0882 78.9516 131.273 33.5269 86.5599 130.244 33.318 
85.2599 130.208 33.2704 86.766 129.602 33.4284 84.3068 129.667 33.6993 
82.3715 130.179 33.2525 84.8626 129.824 33.4716 78.3396 138.124 33.7223 
77.5795 137.182 34.1821 81.5834 135.879 34.3873 82.5278 135.145 34.103 
83.37 134.362 33.9245 83.4984 133.886 33.5093 84.7752 133.492 34.8024 
85.3351 132.721 34.1319 86.0618 132.006 33.988 79.8167 131.682 35.3502 
86.5897 131.205 33.6552 87.6007 130.845 33.7678 89.4616 130.193 33.9019 
89.5048 129.919 33.7481 89.011 130.773 34.1549 89.3414 129.74 33.66 
89.595 129.665 33.7844 88.9295 129.64 33.6169 85.2429 129.498 33.6208 
84.7744 129.226 34.1087 82.2315 129.863 34.1817 89.1664 129.169 33.8371 
86.3452 129.153 33.6999 86.0811 129.025 33.88 85.0778 129.29 33.8564 
87.5223 128.965 33.8744 88.6004 128.741 34.241 86.4449 128.991 33.9001 
79.0431 137.591 34.2049 77.4122 137.264 34.0548 80.1745 136.865 34.4779 
83.1458 134.499 35.3053 85.0224 133.256 34.6316 85.9281 132.473 34.4322 
86.7818 131.847 34.3424 87.6357 131.104 33.9653 87.6343 131.67 34.6765 
87.7031 131.344 34.217 81.8785 130.242 35.3534 89.9109 130.183 34.5395 
89.9368 129.866 34.1276 89.8414 129.629 33.998 90.0134 129.615 34.2596 
84.9569 129.074 34.2942 89.8599 129.385 34.1612 89.9463 129.319 34.4433 
88.1497 128.728 34.1862 79.8028 136.819 34.5925 77.9467 137.209 34.28 
81.6695 135.518 34.8897 85.7582 132.858 35.323 78.45 133.055 34.9581 
88.4188 131.462 34.9801 89.2098 130.845 34.4341 90.0209 129.905 34.3907 
89.6119 130.534 34.5536 81.7864 129.973 34.4828 89.9648 129.289 35.0373 
89.7153 129.043 34.6819 89.2719 128.839 34.5968 87.6901 128.562 34.949 
79.4451 135.496 35.2348 81.1454 135.546 35.1934 87.7938 131.78 35.6325 
89.4285 130.647 35.3024 89.5517 130.62 34.9791 79.8867 131.46 35.234 
90.0339 129.903 34.7248 90.0493 129.557 34.9053 89.7647 129.074 35.0207 
86.1981 128.887 35.7371 84.6894 129.052 35.3695 81.0234 135.064 35.5205 
79.1511 134.683 35.4562 82.5904 133.718 36.2378 84.647 133.516 35.4774 
78.7966 133.829 35.3664 85.5082 132.877 36.0873 86.9955 132.14 35.3798 
89.6563 130.237 35.2807 89.9083 129.473 35.2003 89.7983 129.198 35.2281 
83.617 129.506 35.6766 84.3812 129.125 35.3323 88.9878 128.988 35.6776 
88.3351 128.66 35.3654 86.6466 128.71 35.3782 87.3649 128.722 35.6722 
79.8569 133.833 35.8586 83.2162 133.19 36.5288 79.8853 132.893 35.8064 
85.7494 132.829 35.7999 86.3085 132.486 35.8924 86.4529 132.471 35.6624 
81.1506 131.406 35.8676 88.2933 131.245 36.06 88.5048 131.217 35.8042 
88.8581 130.592 35.9946 88.887 130.88 35.7805 81.7457 131.398 36.1897 
89.409 129.52 35.6812 82.063 130.351 35.6472 82.6518 130.446 36.2264 
89.3337 129.186 35.6295 84.489 129.296 35.8504 84.4698 129.154 35.546 
86.5361 129.244 36.3193 81.5052 133.572 36.2247 84.9612 132.859 36.4612 
85.6304 132.735 36.1758 87.1106 131.747 36.383 87.4148 131.713 36.1943 
82.3887 132.521 36.6971 87.8172 131.316 36.3548 88.4343 129.596 36.2718 
84.5807 129.476 36.158 88.6899 129.082 35.9316 88.2936 129.344 36.2538 
88.326 129.106 36.0944 85.8967 129.59 36.491 82.3431 132.877 36.6598 
83.8043 132.235 36.8491 82.5648 133.155 36.5819 87.0505 131.504 36.5234 
88.4436 130.011 36.2937 87.3097 129.977 36.6757 87.0514 129.685 36.5959 
84.8661 129.593 36.341 85.0597 129.902 36.5487 87.0395 129.331 36.384 
83.3539 131.898 36.8598 82.8357 132.433 36.7779 
POLYGONS 1038 4152
3 0 1 2 
3 0 3 1 
3 3 4 5 
3 1 3 5 
3 5 4 6 
3 7 0 2 
3 8 9 3 
3 8 3 7 
3 7 3 0 
3 4 3 9 
3 6 4 10 
3 11 12 13 
3 13 2 1 
3 5 6 1 
3 13 12 14 
3 2 14 7 
3 13 14 2 
3 9 8 15 
3 16 9 15 
3 16 17 9 
3 17 4 9 
3 4 17 10 
3 18 6 10 
3 7 14 12 
3 15 8 7 
3 15 7 19 
3 20 21 22 
3 23 12 11 
3 23 11 24 
3 13 25 11 
3 22 1 20 
3 22 25 1 
3 25 13 1 
3 6 20 1 
3 6 18 20 
3 26 23 24 
3 23 26 12 
3 17 16 27 
3 10 17 27 
3 28 18 10 
3 27 28 10 
3 12 26 29 
3 12 29 7 
3 29 19 7 
3 30 31 19 
3 31 15 19 
3 31 16 15 
3 19 29 32 
3 33 19 32 
3 30 19 33 
3 25 22 21 
3 34 35 36 
3 34 24 35 
3 35 24 37 
3 38 11 25 
3 38 37 11 
3 37 24 11 
3 39 20 40 
3 41 42 40 
3 41 40 18 
3 18 40 20 
3 18 28 41 
3 24 34 26 
3 42 41 27 
3 42 27 43 
3 28 27 41 
3 26 34 29 
3 31 44 27 
3 30 44 31 
3 27 16 31 
3 32 29 45 
3 33 32 44 
3 32 45 44 
3 44 30 33 
3 25 46 38 
3 38 46 47 
3 21 48 25 
3 25 48 46 
3 39 48 20 
3 20 48 21 
3 49 36 35 
3 49 35 37 
3 50 37 38 
3 40 51 39 
3 51 40 42 
3 52 51 42 
3 53 49 54 
3 49 53 36 
3 52 42 43 
3 55 52 43 
3 36 53 56 
3 36 56 34 
3 34 56 29 
3 45 29 57 
3 50 38 47 
3 48 58 46 
3 58 48 39 
3 54 49 37 
3 59 60 61 
3 59 61 51 
3 51 61 39 
3 51 52 59 
3 60 59 55 
3 60 55 43 
3 52 55 59 
3 62 54 63 
3 54 62 53 
3 43 27 64 
3 56 53 62 
3 65 45 57 
3 45 65 44 
3 64 27 44 
3 29 56 66 
3 67 29 66 
3 57 29 67 
3 46 58 47 
3 54 68 69 
3 54 37 68 
3 39 61 58 
3 70 69 71 
3 70 63 69 
3 63 54 69 
3 60 72 73 
3 43 72 60 
3 74 62 70 
3 70 62 63 
3 43 64 72 
3 72 64 75 
3 62 74 56 
3 65 76 77 
3 57 76 65 
3 65 77 44 
3 75 64 44 
3 78 66 56 
3 47 79 50 
3 58 80 47 
3 81 68 71 
3 81 69 68 
3 68 37 82 
3 83 58 61 
3 83 84 58 
3 61 60 83 
3 70 71 74 
3 69 81 71 
3 73 84 83 
3 73 72 84 
3 72 85 84 
3 60 73 83 
3 72 75 85 
3 85 75 86 
3 87 56 74 
3 87 74 88 
3 86 75 44 
3 77 86 44 
3 57 67 76 
3 78 56 87 
3 67 66 89 
3 68 82 90 
3 71 68 90 
3 71 90 74 
3 90 91 74 
3 88 74 91 
3 92 86 77 
3 93 87 88 
3 77 76 94 
3 87 93 78 
3 93 66 78 
3 94 67 89 
3 94 76 67 
3 66 93 95 
3 89 66 95 
3 47 80 79 
3 37 96 82 
3 96 37 50 
3 97 58 84 
3 84 85 97 
3 97 85 98 
3 91 99 100 
3 91 100 88 
3 85 86 98 
3 100 101 88 
3 98 86 92 
3 101 93 88 
3 92 77 94 
3 93 102 103 
3 93 103 95 
3 96 50 79 
3 96 79 104 
3 80 104 79 
3 90 82 105 
3 58 106 80 
3 106 58 97 
3 105 91 90 
3 101 107 93 
3 108 93 107 
3 93 108 102 
3 109 94 89 
3 108 107 103 
3 103 102 108 
3 96 104 82 
3 91 105 99 
3 97 110 106 
3 98 110 97 
3 92 111 98 
3 94 111 92 
3 112 103 107 
3 112 107 113 
3 104 114 82 
3 82 115 105 
3 105 115 116 
3 106 110 80 
3 105 117 99 
3 110 98 111 
3 94 109 111 
3 101 118 107 
3 118 119 107 
3 107 119 113 
3 103 112 120 
3 103 120 95 
3 115 82 114 
3 121 114 104 
3 117 105 116 
3 117 116 115 
3 104 122 121 
3 104 80 122 
3 101 123 124 
3 101 100 123 
3 109 125 111 
3 101 124 118 
3 126 118 124 
3 127 118 126 
3 128 127 126 
3 118 127 119 
3 119 127 129 
3 119 129 113 
3 89 130 109 
3 112 113 129 
3 120 89 95 
3 122 80 110 
3 131 122 110 
3 99 117 123 
3 110 111 131 
3 99 123 100 
3 125 132 133 
3 109 132 125 
3 132 109 130 
3 129 127 128 
3 120 112 134 
3 114 121 115 
3 115 121 135 
3 115 136 137 
3 117 115 137 
3 121 122 138 
3 137 123 117 
3 123 139 124 
3 131 111 140 
3 111 125 140 
3 140 125 141 
3 141 125 142 
3 142 125 133 
3 143 126 124 
3 144 126 143 
3 128 144 129 
3 126 144 128 
3 112 144 145 
3 112 129 144 
3 130 89 146 
3 146 132 130 
3 146 89 120 
3 115 135 136 
3 121 138 135 
3 123 137 139 
3 147 131 140 
3 124 148 143 
3 112 145 149 
3 120 134 150 
3 120 150 146 
3 135 151 136 
3 135 138 152 
3 122 153 138 
3 154 139 137 
3 153 122 155 
3 155 122 131 
3 154 148 124 
3 154 124 139 
3 147 155 131 
3 155 147 140 
3 156 157 140 
3 156 140 141 
3 141 142 156 
3 133 158 142 
3 133 132 158 
3 159 132 146 
3 143 160 145 
3 145 144 143 
3 112 149 134 
3 137 148 154 
3 155 140 161 
3 157 156 161 
3 140 157 161 
3 156 142 162 
3 142 163 162 
3 142 158 163 
3 164 160 143 
3 158 132 159 
3 165 145 160 
3 159 146 166 
3 145 165 167 
3 145 167 149 
3 168 169 150 
3 169 146 150 
3 169 166 146 
3 134 149 167 
3 135 152 151 
3 153 152 138 
3 155 170 153 
3 156 162 161 
3 164 143 148 
3 171 165 164 
3 164 165 160 
3 165 171 172 
3 165 172 167 
3 159 166 169 
3 167 172 173 
3 172 174 173 
3 175 150 134 
3 176 173 174 
3 167 173 176 
3 167 176 134 
3 177 134 176 
3 153 170 152 
3 178 170 155 
3 148 137 179 
3 155 161 178 
3 178 161 162 
3 164 180 171 
3 169 168 181 
3 158 159 169 
3 181 158 169 
3 182 150 175 
3 182 168 150 
3 172 183 174 
3 134 177 175 
3 184 137 136 
3 137 185 179 
3 186 185 137 
3 184 186 137 
3 171 183 172 
3 182 175 181 
3 181 168 182 
3 187 184 188 
3 188 184 136 
3 136 151 188 
3 152 189 151 
3 184 187 186 
3 179 190 148 
3 148 190 164 
3 180 164 190 
3 191 171 180 
3 192 158 181 
3 183 171 193 
3 194 181 175 
3 183 195 196 
3 183 193 195 
3 183 176 174 
3 197 175 177 
3 197 194 175 
3 187 188 151 
3 198 199 185 
3 187 200 186 
3 186 200 185 
3 189 187 151 
3 199 198 179 
3 199 179 185 
3 152 170 201 
3 201 170 178 
3 162 201 178 
3 158 192 163 
3 202 171 191 
3 171 202 196 
3 195 171 196 
3 195 193 171 
3 183 196 203 
3 203 176 183 
3 176 204 177 
3 185 205 206 
3 198 185 206 
3 185 200 205 
3 187 189 200 
3 179 198 207 
3 179 208 190 
3 180 190 209 
3 210 196 202 
3 196 210 203 
3 204 176 211 
3 212 204 211 
3 205 200 206 
3 152 200 189 
3 200 213 206 
3 152 214 200 
3 152 201 214 
3 198 206 207 
3 201 215 214 
3 179 207 208 
3 190 208 216 
3 162 163 201 
3 180 217 191 
3 218 191 217 
3 192 181 219 
3 181 194 219 
3 220 202 191 
3 202 220 221 
3 210 202 221 
3 210 221 203 
3 222 204 212 
3 222 223 204 
3 223 177 204 
3 197 177 223 
3 203 221 176 
3 176 221 224 
3 200 225 213 
3 200 214 225 
3 226 207 206 
3 214 227 225 
3 214 215 227 
3 207 228 208 
3 208 228 216 
3 163 215 201 
3 190 216 209 
3 216 229 209 
3 209 229 180 
3 217 180 229 
3 217 230 218 
3 218 220 191 
3 223 222 231 
3 231 197 223 
3 231 194 197 
3 222 212 211 
3 222 211 231 
3 211 176 224 
3 206 232 226 
3 213 232 206 
3 233 213 225 
3 227 233 225 
3 228 207 216 
3 234 215 163 
3 216 230 229 
3 230 235 218 
3 236 220 235 
3 220 218 235 
3 192 219 237 
3 238 219 194 
3 239 220 240 
3 220 239 221 
3 221 239 241 
3 221 241 224 
3 207 242 243 
3 216 207 243 
3 216 243 230 
3 163 192 234 
3 217 229 230 
3 235 230 244 
3 237 219 245 
3 236 246 220 
3 245 219 238 
3 220 246 240 
3 211 224 247 
3 213 233 232 
3 233 226 232 
3 226 242 207 
3 243 242 248 
3 215 234 249 
3 227 215 249 
3 235 250 236 
3 246 236 250 
3 247 251 211 
3 224 241 239 
3 242 226 252 
3 252 248 242 
3 233 249 253 
3 233 227 249 
3 243 248 254 
3 230 243 254 
3 254 244 230 
3 244 255 256 
3 235 244 256 
3 257 256 246 
3 257 250 256 
3 250 235 256 
3 237 258 192 
3 250 257 246 
3 245 238 237 
3 238 258 237 
3 238 194 258 
3 194 231 251 
3 251 231 211 
3 252 226 248 
3 233 253 226 
3 248 259 244 
3 254 248 244 
3 253 249 234 
3 256 255 246 
3 239 240 260 
3 247 261 251 
3 239 262 224 
3 224 262 247 
3 248 263 259 
3 263 248 226 
3 258 234 192 
3 264 246 255 
3 246 264 240 
3 194 265 258 
3 194 251 265 
3 260 262 239 
3 247 262 266 
3 267 259 263 
3 253 263 226 
3 259 268 244 
3 267 268 259 
3 269 255 244 
3 258 265 270 
3 261 265 251 
3 271 260 240 
3 272 265 261 
3 247 273 261 
3 274 273 247 
3 262 260 275 
3 275 266 262 
3 244 268 276 
3 263 268 267 
3 277 244 276 
3 270 265 278 
3 240 279 271 
3 280 260 271 
3 261 273 274 
3 260 280 281 
3 281 275 260 
3 274 247 266 
3 282 276 268 
3 282 268 283 
3 283 268 263 
3 277 284 244 
3 276 282 277 
3 282 284 277 
3 253 234 285 
3 285 234 258 
3 255 286 287 
3 264 255 287 
3 286 255 269 
3 270 278 288 
3 278 265 289 
3 289 265 290 
3 290 265 272 
3 291 272 261 
3 274 291 261 
3 281 292 275 
3 292 266 275 
3 293 274 266 
3 283 284 282 
3 294 283 263 
3 263 253 294 
3 244 295 269 
3 284 295 244 
3 296 294 285 
3 294 253 285 
3 297 285 258 
3 258 270 297 
3 288 278 298 
3 298 278 299 
3 289 300 301 
3 289 301 299 
3 289 299 278 
3 240 264 279 
3 290 300 289 
3 272 291 290 
3 271 302 280 
3 274 303 291 
3 281 280 302 
3 293 303 274 
3 304 292 281 
3 293 266 292 
3 292 304 305 
3 284 283 294 
3 295 286 269 
3 297 296 285 
3 288 298 299 
3 290 291 300 
3 300 291 306 
3 303 306 291 
3 307 302 271 
3 281 307 308 
3 302 307 281 
3 281 308 304 
3 305 304 308 
3 292 305 309 
3 286 310 311 
3 287 286 311 
3 311 264 287 
3 297 288 312 
3 297 270 288 
3 311 313 264 
3 314 288 299 
3 299 301 314 
3 301 315 314 
3 300 315 301 
3 271 316 307 
3 317 307 316 
3 308 307 317 
3 305 308 309 
3 292 309 318 
3 292 318 293 
3 319 294 296 
3 296 297 319 
3 312 319 297 
3 312 288 320 
3 315 320 314 
3 314 320 288 
3 300 321 315 
3 300 306 321 
3 279 322 271 
3 322 316 271 
3 323 306 303 
3 303 293 324 
3 325 308 317 
3 308 325 309 
3 326 309 325 
3 318 309 326 
3 286 295 310 
3 284 327 295 
3 294 327 284 
3 311 328 329 
3 328 311 310 
3 311 329 313 
3 313 330 264 
3 320 315 312 
3 315 321 331 
3 321 306 332 
3 332 306 323 
3 317 333 325 
3 324 293 318 
3 334 325 333 
3 334 326 325 
3 326 335 318 
3 319 327 294 
3 329 330 313 
3 328 330 329 
3 319 312 336 
3 312 315 331 
3 264 337 279 
3 331 321 338 
3 322 279 337 
3 338 321 332 
3 322 339 316 
3 316 339 340 
3 323 303 341 
3 316 342 317 
3 303 324 341 
3 341 324 343 
3 342 333 317 
3 324 318 343 
3 344 345 335 
3 345 318 335 
3 326 334 335 
3 310 346 328 
3 346 310 295 
3 346 330 328 
3 319 336 327 
3 336 312 347 
3 312 331 347 
3 264 348 337 
3 332 331 338 
3 340 339 349 
3 339 322 349 
3 340 342 316 
3 341 343 350 
3 351 333 342 
3 352 350 343 
3 351 353 333 
3 354 343 318 
3 353 355 333 
3 345 344 356 
3 356 318 345 
3 357 333 355 
3 334 333 357 
3 327 358 346 
3 327 346 295 
3 322 337 349 
3 341 332 323 
3 342 340 359 
3 350 360 341 
3 352 360 350 
3 352 343 360 
3 343 361 360 
3 362 353 351 
3 318 363 354 
3 354 363 361 
3 361 343 354 
3 353 362 355 
3 363 318 356 
3 357 364 334 
3 335 334 356 
3 356 344 335 
3 334 364 365 
3 366 334 365 
3 367 330 368 
3 368 330 346 
3 369 368 346 
3 358 369 346 
3 358 327 369 
3 327 336 369 
3 330 367 348 
3 264 330 348 
3 370 347 331 
3 331 332 370 
3 349 337 371 
3 372 370 332 
3 349 373 340 
3 371 373 349 
3 374 375 332 
3 374 332 341 
3 359 376 342 
3 341 375 374 
3 341 360 375 
3 360 377 375 
3 342 376 351 
3 361 377 360 
3 351 378 362 
3 378 379 380 
3 378 380 381 
3 362 378 381 
3 382 363 356 
3 379 383 380 
3 380 383 384 
3 381 380 362 
3 384 383 385 
3 362 380 384 
3 362 386 355 
3 355 386 357 
3 357 387 364 
3 386 387 357 
3 334 366 356 
3 388 384 385 
3 386 384 388 
3 362 384 386 
3 368 369 389 
3 368 389 367 
3 390 389 369 
3 336 390 369 
3 367 391 348 
3 348 371 337 
3 392 371 348 
3 340 373 393 
3 394 340 393 
3 394 395 376 
3 394 376 359 
3 394 359 340 
3 376 395 396 
3 376 396 397 
3 376 397 351 
3 351 397 378 
3 378 397 379 
3 398 363 382 
3 399 400 383 
3 399 383 379 
3 401 402 403 
3 402 383 403 
3 400 403 383 
3 404 405 406 
3 404 406 402 
3 383 402 385 
3 385 402 406 
3 385 407 388 
3 408 388 407 
3 408 386 388 
3 386 409 387 
3 364 387 409 
3 365 364 409 
3 410 406 405 
3 385 406 410 
3 385 411 412 
3 407 385 412 
3 413 407 412 
3 408 407 413 
3 414 410 415 
3 385 410 414 
3 416 385 414 
3 411 385 416 
3 367 389 417 
3 336 418 390 
3 336 347 418 
3 419 391 367 
3 418 347 390 
3 420 392 348 
3 393 373 392 
3 392 373 371 
3 393 392 395 
3 393 395 394 
3 395 421 396 
3 375 377 372 
3 363 398 361 
3 399 397 422 
3 423 399 422 
3 396 422 397 
3 424 423 425 
3 426 424 425 
3 397 399 379 
3 424 426 400 
3 423 424 400 
3 399 423 400 
3 427 382 356 
3 402 428 429 
3 402 401 428 
3 428 401 403 
3 400 426 403 
3 427 356 366 
3 430 402 429 
3 431 430 429 
3 402 405 404 
3 402 430 405 
3 386 432 409 
3 433 430 431 
3 434 433 431 
3 405 430 433 
3 405 433 410 
3 414 415 435 
3 412 411 416 
3 412 416 432 
3 413 412 432 
3 408 413 432 
3 389 390 417 
3 419 367 436 
3 436 367 417 
3 390 437 417 
3 437 436 417 
3 390 347 437 
3 348 391 438 
3 419 438 391 
3 438 420 348 
3 347 370 372 
3 332 375 372 
3 396 421 439 
3 372 377 440 
3 396 439 422 
3 440 361 398 
3 377 361 440 
3 439 423 422 
3 426 441 403 
3 403 441 442 
3 429 428 443 
3 403 444 428 
3 444 403 442 
3 429 443 431 
3 365 409 445 
3 445 366 365 
3 431 446 434 
3 408 432 386 
3 409 432 445 
3 434 446 447 
3 433 434 447 
3 410 433 448 
3 433 447 448 
3 410 448 415 
3 435 449 414 
3 416 414 432 
3 419 436 450 
3 437 450 436 
3 451 438 419 
3 450 437 347 
3 425 452 441 
3 425 441 426 
3 442 453 454 
3 453 442 441 
3 455 382 427 
3 443 428 456 
3 454 444 442 
3 454 456 444 
3 456 428 444 
3 366 445 427 
3 443 456 431 
3 456 457 431 
3 431 457 446 
3 447 446 458 
3 448 447 458 
3 415 448 435 
3 414 449 432 
3 432 459 460 
3 461 451 419 
3 461 419 450 
3 451 461 438 
3 450 347 462 
3 438 463 420 
3 347 372 462 
3 420 395 392 
3 420 464 395 
3 465 372 440 
3 421 464 439 
3 439 464 466 
3 464 421 395 
3 465 440 398 
3 423 467 425 
3 425 467 452 
3 467 423 439 
3 398 382 455 
3 456 454 468 
3 454 453 468 
3 456 469 457 
3 469 456 468 
3 469 470 446 
3 457 469 446 
3 445 432 471 
3 432 472 471 
3 446 470 458 
3 448 458 473 
3 435 448 474 
3 448 473 474 
3 435 474 449 
3 432 449 475 
3 449 476 475 
3 472 432 460 
3 461 450 477 
3 438 461 463 
3 450 462 477 
3 478 464 420 
3 463 478 420 
3 372 465 462 
3 479 477 462 
3 465 479 462 
3 439 466 480 
3 481 482 439 
3 481 439 480 
3 465 398 479 
3 482 467 439 
3 482 481 467 
3 481 452 467 
3 483 479 398 
3 452 484 485 
3 441 452 485 
3 398 455 483 
3 486 453 487 
3 485 453 441 
3 487 453 485 
3 483 427 488 
3 455 427 483 
3 453 489 468 
3 489 453 486 
3 488 427 490 
3 468 489 469 
3 491 490 445 
3 491 445 471 
3 427 445 490 
3 489 492 470 
3 469 489 470 
3 492 489 473 
3 460 493 494 
3 459 493 460 
3 494 493 472 
3 493 471 472 
3 470 492 458 
3 492 473 458 
3 449 474 476 
3 475 476 495 
3 432 475 459 
3 475 495 459 
3 472 460 494 
3 463 461 496 
3 477 496 461 
3 464 478 466 
3 466 478 497 
3 479 496 477 
3 480 498 481 
3 480 466 498 
3 497 498 466 
3 452 499 500 
3 481 499 452 
3 498 499 481 
3 483 501 496 
3 488 501 483 
3 479 483 496 
3 502 484 452 
3 502 452 500 
3 485 486 487 
3 485 484 486 
3 488 490 491 
3 503 489 486 
3 504 491 471 
3 503 505 473 
3 489 503 473 
3 506 507 503 
3 507 505 503 
3 495 508 459 
3 504 493 459 
3 471 493 504 
3 474 473 505 
3 507 474 505 
3 474 507 476 
3 463 496 509 
3 478 510 497 
3 511 478 463 
3 509 511 463 
3 496 501 509 
3 512 499 498 
3 500 512 502 
3 500 499 512 
3 484 502 486 
3 486 502 513 
3 513 502 514 
3 486 513 503 
3 503 513 506 
3 506 513 514 
3 515 508 495 
3 516 517 504 
3 517 491 504 
3 507 506 514 
3 515 518 514 
3 518 507 514 
3 495 518 515 
3 517 459 508 
3 516 459 517 
3 504 459 516 
3 518 476 507 
3 495 476 518 
3 510 478 519 
3 519 478 511 
3 497 510 498 
3 511 520 519 
3 509 501 511 
3 501 520 511 
3 498 510 512 
3 501 488 520 
3 488 519 520 
3 512 514 502 
3 510 514 512 
3 519 517 510 
3 491 517 519 
3 488 491 519 
3 510 508 514 
3 508 515 514 
3 510 517 508 

POINT_DATA 521
SCALARS scalars float
LOOKUP_TABLE default
0.5 0.5 0.5 0.5 0.5 0.5 0.5 0.5 0.5 
0.5 0.5 0.5 0.5 0.5 0.5 0.5 0.5 0.5 
0.5 0.5 0.5 0.5 0.5 0.5 0.5 0.5 0.5 
0.5 0.5 0.5 0.5 0.5 0.5 0.5 0.5 0.5 
0.5 0.5 0.5 0.5 0.5 0.5 0.5 0.5 0.5 
0.5 0.5 0.5 0.5 0.5 0.5 0.5 0.5 0.5 
0.5 0.5 0.5 0.5 0.5 0.5 0.5 0.5 0.5 
0.5 0.5 0.5 0.5 0.5 0.5 0.5 0.5 0.5 
0.5 0.5 0.5 0.5 0.5 0.5 0.5 0.5 0.5 
0.5 0.5 0.5 0.5 0.5 0.5 0.5 0.5 0.5 
0.5 0.5 0.5 0.5 0.5 0.5 0.5 0.5 0.5 
0.5 0.5 0.5 0.5 0.5 0.5 0.5 0.5 0.5 
0.5 0.5 0.5 0.5 0.5 0.5 0.5 0.5 0.5 
0.5 0.5 0.5 0.5 0.5 0.5 0.5 0.5 0.5 
0.5 0.5 0.5 0.5 0.5 0.5 0.5 0.5 0.5 
0.5 0.5 0.5 0.5 0.5 0.5 0.5 0.5 0.5 
0.5 0.5 0.5 0.5 0.5 0.5 0.5 0.5 0.5 
0.5 0.5 0.5 0.5 0.5 0.5 0.5 0.5 0.5 
0.5 0.5 0.5 0.5 0.5 0.5 0.5 0.5 0.5 
0.5 0.5 0.5 0.5 0.5 0.5 0.5 0.5 0.5 
0.5 0.5 0.5 0.5 0.5 0.5 0.5 0.5 0.5 
0.5 0.5 0.5 0.5 0.5 0.5 0.5 0.5 0.5 
0.5 0.5 0.5 0.5 0.5 0.5 0.5 0.5 0.5 
0.5 0.5 0.5 0.5 0.5 0.5 0.5 0.5 0.5 
0.5 0.5 0.5 0.5 0.5 0.5 0.5 0.5 0.5 
0.5 0.5 0.5 0.5 0.5 0.5 0.5 0.5 0.5 
0.5 0.5 0.5 0.5 0.5 0.5 0.5 0.5 0.5 
0.5 0.5 0.5 0.5 0.5 0.5 0.5 0.5 0.5 
0.5 0.5 0.5 0.5 0.5 0.5 0.5 0.5 0.5 
0.5 0.5 0.5 0.5 0.5 0.5 0.5 0.5 0.5 
0.5 0.5 0.5 0.5 0.5 0.5 0.5 0.5 0.5 
0.5 0.5 0.5 0.5 0.5 0.5 0.5 0.5 0.5 
0.5 0.5 0.5 0.5 0.5 0.5 0.5 0.5 0.5 
0.5 0.5 0.5 0.5 0.5 0.5 0.5 0.5 0.5 
0.5 0.5 0.5 0.5 0.5 0.5 0.5 0.5 0.5 
0.5 0.5 0.5 0.5 0.5 0.5 0.5 0.5 0.5 
0.5 0.5 0.5 0.5 0.5 0.5 0.5 0.5 0.5 
0.5 0.5 0.5 0.5 0.5 0.5 0.5 0.5 0.5 
0.5 0.5 0.5 0.5 0.5 0.5 0.5 0.5 0.5 
0.5 0.5 0.5 0.5 0.5 0.5 0.5 0.5 0.5 
0.5 0.5 0.5 0.5 0.5 0.5 0.5 0.5 0.5 
0.5 0.5 0.5 0.5 0.5 0.5 0.5 0.5 0.5 
0.5 0.5 0.5 0.5 0.5 0.5 0.5 0.5 0.5 
0.5 0.5 0.5 0.5 0.5 0.5 0.5 0.5 0.5 
0.5 0.5 0.5 0.5 0.5 0.5 0.5 0.5 0.5 
0.5 0.5 0.5 0.5 0.5 0.5 0.5 0.5 0.5 
0.5 0.5 0.5 0.5 0.5 0.5 0.5 0.5 0.5 
0.5 0.5 0.5 0.5 0.5 0.5 0.5 0.5 0.5 
0.5 0.5 0.5 0.5 0.5 0.5 0.5 0.5 0.5 
0.5 0.5 0.5 0.5 0.5 0.5 0.5 0.5 0.5 
0.5 0.5 0.5 0.5 0.5 0.5 0.5 0.5 0.5 
0.5 0.5 0.5 0.5 0.5 0.5 0.5 0.5 0.5 
0.5 0.5 0.5 0.5 0.5 0.5 0.5 0.5 0.5 
0.5 0.5 0.5 0.5 0.5 0.5 0.5 0.5 0.5 
0.5 0.5 0.5 0.5 0.5 0.5 0.5 0.5 0.5 
0.5 0.5 0.5 0.5 0.5 0.5 0.5 0.5 0.5 
0.5 0.5 0.5 0.5 0.5 0.5 0.5 0.5 0.5 
0.5 0.5 0.5 0.5 0.5 0.5 0.5 0.5 
NORMALS Normals float
0.0569755 0.318294 -0.946278 0.0997883 0.631248 -0.769135 0.155653 0.131813 -0.978978 
-0.0778551 -0.0176085 -0.996809 -0.500808 -0.470127 -0.726754 -0.16136 0.464878 -0.870547 
-0.765026 0.479564 -0.42983 0.0145262 -0.234786 -0.971939 -0.15245 -0.495295 -0.855244 
-0.338507 -0.690243 -0.639513 -0.840144 -0.542118 -0.0163011 0.346637 0.58282 -0.734958 
0.438692 -0.245634 -0.864415 0.205141 0.359778 -0.910207 0.276918 -0.102191 -0.955444 
-0.254581 -0.749794 -0.610735 -0.431291 -0.818026 -0.380555 -0.572583 -0.80956 -0.129465 
-0.866273 0.427453 0.258563 -0.0890525 -0.824377 -0.558992 -0.203017 0.927428 -0.314104 
-0.0842386 0.990257 -0.110878 0.0453441 0.847372 -0.52906 0.539165 0.286003 -0.792151 
0.605844 0.0492287 -0.794059 0.0938754 0.903792 -0.41755 0.542368 -0.225141 -0.809412 
-0.844407 -0.452991 0.285964 -0.907779 0.133 0.397805 0.22896 -0.714533 -0.661075 
-0.323403 -0.865309 -0.38295 -0.440033 -0.85745 -0.266739 -0.0687962 -0.922631 -0.379499 
-0.251622 -0.920053 -0.300316 0.593601 0.191811 -0.781567 0.54276 0.482986 -0.687122 
0.542814 -0.252914 -0.800867 0.476186 0.740356 -0.474468 0.235591 0.843459 -0.482777 
-0.338785 0.935088 0.104097 -0.587064 0.809283 0.0204184 -0.836537 0.4051 0.368916 
-0.944389 0.136643 0.299095 -0.732869 -0.622098 0.275495 -0.610352 -0.78983 -0.0603348 
-0.188011 -0.947862 -0.257311 -0.0729687 0.994879 -0.0699447 -0.178902 0.975937 0.124667 
-0.15702 0.986687 0.0423446 0.597024 0.313448 -0.738453 0.365553 0.922905 -0.120902 
-0.82448 0.519423 0.224569 -0.95722 -0.0644609 0.282091 0.605125 -0.0222907 -0.795818 
0.742873 0.396917 -0.53907 -0.868274 -0.327449 0.372663 0.366659 -0.560233 -0.742765 
-0.167242 -0.864852 -0.47335 -0.554465 0.702628 0.445962 -0.891908 0.220446 0.394846 
-0.853686 0.0462447 0.518731 -0.69158 0.568645 0.445377 0.614681 -0.215135 -0.75887 
0.732712 0.107612 -0.671976 -0.664926 -0.735808 0.128297 -0.521505 -0.799286 -0.29862 
0.038517 -0.714702 -0.698368 -0.155791 -0.789846 -0.593189 0.625186 0.740793 -0.245698 
0.699605 0.516129 -0.494129 0.753312 0.208501 -0.623738 0.783613 0.416909 -0.460584 
-0.788719 -0.485046 0.377694 -0.763902 -0.234356 0.601275 0.703773 -0.00708313 -0.71039 
-0.811594 -0.576137 0.0968621 -0.470445 -0.820091 -0.325779 -0.766085 -0.634111 -0.10496 
0.20659 -0.695459 -0.688228 0.081927 0.99384 0.0746382 -0.413143 0.878135 0.24123 
0.682355 0.649654 -0.335173 0.325813 0.920021 -0.217731 -0.704332 0.293065 0.646552 
-0.828286 0.114225 0.548538 -0.941127 -0.224398 0.252836 -0.935437 -0.34391 0.0817577 
0.564907 -0.374323 -0.735366 0.713648 0.224568 -0.663532 -0.394948 -0.792803 -0.464197 
0.623233 0.655185 -0.42698 0.758855 0.522462 -0.388809 -0.852195 -0.518055 0.0733627 
0.456329 -0.451124 -0.766975 -0.579724 -0.800961 -0.149605 -0.0317241 -0.753733 -0.656414 
0.217766 0.969668 -0.111001 -0.904655 0.211909 0.369722 -0.93363 -0.0835926 0.348351 
0.817737 0.351999 -0.455415 0.793013 0.183873 -0.580793 0.852057 0.0449731 -0.521513 
0.564323 -0.502946 -0.654664 0.324747 -0.618163 -0.715831 -0.0898531 0.989725 0.111224 
0.727278 0.601885 -0.329851 -0.779781 0.387765 0.491508 0.708464 -0.184769 -0.68113 
0.65562 -0.412052 -0.632753 -0.769534 -0.631359 -0.0959305 -0.718392 0.555709 0.418451 
-0.934416 0.122389 0.334496 0.379074 -0.579577 -0.721383 0.575411 -0.383928 -0.722151 
0.00182083 0.999601 -0.0281943 0.289996 0.945463 -0.148329 0.500571 0.835228 -0.227645 
0.631059 0.737427 -0.24076 0.823918 0.062684 -0.563232 0.803437 -0.0594608 -0.592413 
-0.0869436 -0.818232 -0.568275 -0.162397 0.977733 0.132915 -0.607815 0.715309 0.34481 
0.705028 0.617711 -0.348379 0.795749 0.448798 -0.40665 -0.926542 -0.346893 0.145552 
0.795298 -0.00765645 -0.60617 0.692841 -0.279999 -0.664509 0.779621 -0.11334 -0.61591 
0.602468 -0.442718 -0.664103 -0.726928 -0.686414 0.0202685 -0.803211 0.460671 0.37767 
-0.769672 -0.63826 0.0151554 -0.873625 -0.457595 0.165486 -0.0154324 -0.869015 -0.494544 
0.0914695 0.987753 0.126399 0.306628 0.905177 0.294337 0.502373 0.86385 -0.0371958 
-0.332483 0.906332 0.2608 0.768584 0.564936 -0.300209 -0.922566 0.0179945 0.38542 
-0.836385 -0.304427 0.455834 -0.832066 -0.435103 0.344023 0.782403 0.00490892 -0.622753 
0.647932 -0.277726 -0.709262 0.538555 -0.50365 -0.675496 -0.626757 -0.730041 -0.272427 
-0.863858 0.223883 0.451249 0.782379 0.54015 -0.310033 0.274843 -0.675351 -0.68437 
-0.356988 -0.849697 -0.388039 0.00470831 0.815531 0.578695 -0.333231 0.668341 0.66504 
-0.403705 0.79462 0.453433 0.711615 0.65924 -0.242914 -0.697825 0.490441 0.522022 
-0.863621 -0.162746 0.47715 -0.806339 -0.0902807 0.584523 -0.817446 -0.539077 0.202923 
-0.804371 -0.592124 0.0487486 0.773812 -0.144464 -0.616721 -0.780808 -0.0405552 0.623454 
-0.907967 -0.0512708 0.415894 -0.938999 -0.105613 0.327303 0.867828 -0.102219 -0.486236 
0.620077 -0.430068 -0.65616 -0.666514 -0.744187 -0.0440962 0.328441 -0.603901 -0.726244 
-0.499022 -0.810257 -0.307344 -0.582815 -0.790388 -0.188713 -0.584275 0.495985 0.642356 
0.764007 -0.307569 -0.567182 0.526511 -0.378861 -0.761085 0.275725 -0.597499 -0.752974 
0.370833 -0.507016 -0.778086 -0.555866 -0.751999 -0.354275 0.0769432 -0.709695 -0.700294 
-0.377119 -0.755796 -0.535306 -0.795713 0.16259 0.583443 0.654309 0.743458 0.138386 
0.920433 0.0996328 -0.37799 -0.742534 -0.667759 -0.0523455 -0.627376 -0.741505 -0.237842 
0.493915 -0.474214 -0.728814 0.329532 0.825241 0.458678 0.429133 0.879663 0.205031 
0.461051 0.803615 0.376344 0.201549 0.85181 0.483526 0.102686 0.86525 0.490711 
-0.115528 0.768263 0.629623 0.875927 0.409703 -0.254746 0.929677 0.0630547 -0.362938 
-0.943882 -0.0572737 0.32528 0.65656 -0.411698 -0.632008 -0.84861 -0.507345 -0.149875 
0.520362 -0.457952 -0.720766 0.562461 -0.461153 -0.686276 -0.500345 -0.742442 -0.445461 
0.391054 0.882539 0.261155 0.533979 0.827436 0.173829 0.0922271 0.858432 0.504568 
-0.647431 0.366018 0.668479 0.803468 -0.103399 -0.5863 0.375154 -0.500266 -0.78038 
-0.175662 -0.680105 -0.711759 0.173882 0.906484 0.384774 0.328645 0.875538 0.354154 
0.573819 0.763475 0.296374 0.765664 0.618222 -0.177653 0.9519 0.259489 -0.162949 
0.653373 -0.37495 -0.65766 -0.404541 -0.801723 -0.439986 -0.35507 -0.684242 -0.636975 
-0.0245179 0.788458 0.614599 -0.405067 0.58424 0.703267 -0.68572 0.206689 0.697902 
0.78229 0.59549 0.182796 0.919964 0.163674 -0.356198 0.879473 0.095162 -0.466338 
-0.957976 -0.284117 0.0394933 0.79468 0.13269 -0.592349 0.397425 -0.427439 -0.812003 
-0.474459 -0.697412 -0.537126 -0.59808 -0.639967 -0.482434 -0.174356 -0.644876 -0.744134 
-0.154374 0.703223 0.694008 0.182818 0.791179 0.583621 -0.479901 0.53819 0.692854 
0.704886 0.697924 0.126644 0.942951 0.317722 -0.0994813 0.910653 0.391148 -0.133094 
-0.645874 -0.712699 -0.273692 0.194695 0.757834 0.622722 -0.247081 0.662911 0.706753 
-0.765655 0.0638119 0.640079 0.850881 0.307872 -0.425694 0.804398 0.221867 -0.551107 
-0.922323 -0.120355 0.367198 -0.937789 -0.326108 0.119182 0.537075 -0.405969 -0.739418 
0.732523 -0.137986 -0.666611 0.16712 -0.544215 -0.822132 0.473854 0.760523 0.443922 
0.776755 0.596281 0.202733 0.64996 0.701469 0.292393 -0.956657 -0.202273 0.209505 
0.872505 0.225659 -0.433374 -0.419374 -0.720478 -0.552302 0.589036 0.722515 0.361951 
-0.476325 0.394919 0.785591 0.865633 0.344185 -0.363615 -0.728366 -0.650082 -0.21651 
0.385077 0.778929 0.49496 -0.383532 0.488807 0.783563 0.794013 0.591883 0.138626 
0.80716 0.580981 -0.104665 0.892979 0.432679 -0.124008 0.880963 0.415637 -0.226163 
-0.874081 -0.273433 0.401518 0.572105 0.71098 0.408905 0.496809 -0.439048 -0.74861 
-0.667238 -0.685373 -0.291645 0.0990663 -0.656807 -0.747522 0.240221 0.811708 0.532376 
0.906566 0.408535 -0.106011 -0.887342 -0.453569 -0.0830603 -0.137081 -0.769339 -0.623961 
0.385231 0.764861 0.516318 0.46423 0.71616 0.521158 0.650598 0.748059 0.13088 
-0.909599 -0.129161 0.394902 0.863184 -0.114842 -0.491655 -0.72134 -0.677577 -0.143384 
-0.577703 -0.732354 -0.360439 -0.390083 -0.806618 -0.444075 -0.0336925 -0.690187 -0.722846 
0.399954 0.758384 0.514676 0.519685 0.749649 0.409822 -0.97444 -0.127687 0.184831 
0.830619 0.0566273 -0.553954 0.568493 -0.413988 -0.710936 0.404499 -0.544163 -0.735029 
0.224314 0.770542 0.596614 0.100054 0.727114 0.679187 0.337766 0.761177 0.553645 
-0.562927 0.469334 0.680323 0.508093 0.791636 0.339344 0.673388 0.739219 0.0101954 
-0.868113 -0.00028629 0.496366 -0.89841 -0.352294 0.262199 -0.875791 -0.451577 0.170493 
-0.775541 -0.630107 -0.038754 -0.122852 -0.737422 -0.664165 -0.362878 -0.790858 -0.492811 
-0.224175 0.658545 0.718376 0.273438 0.807774 0.522238 -0.348121 0.631246 0.693066 
-0.677021 0.368313 0.637172 -0.958816 -0.095798 0.267384 -0.817384 -0.294659 0.495035 
-0.855667 -0.395228 0.334109 -0.859984 -0.34043 0.380178 0.708598 -0.322436 -0.627634 
-0.854755 -0.51817 -0.029904 0.293662 -0.62479 -0.723464 0.160379 -0.655805 -0.737698 
-0.947568 -0.319286 0.013062 0.690599 -0.218204 -0.689536 0.539278 -0.392366 -0.745136 
0.102763 -0.71127 -0.695366 0.457599 0.761016 0.459845 0.831095 0.554921 0.0366572 
-0.687651 0.228232 0.689236 0.82479 0.547661 0.140673 -0.822233 -0.224807 0.522872 
-0.824851 -0.148988 0.545366 0.788865 0.231878 -0.569144 0.721996 -0.175477 -0.669275 
-0.514853 -0.825772 -0.230277 -0.456146 0.518235 0.723438 -0.777292 -0.0761947 0.624509 
-0.966816 -0.106024 0.232436 0.91402 0.210858 -0.346564 -0.909401 -0.355841 0.215332 
-0.74156 -0.63891 -0.204655 0.329986 -0.591004 -0.736086 -0.0280222 -0.884632 -0.465446 
-0.16408 0.757037 0.632433 0.655985 0.689572 0.306877 0.678825 0.63698 0.365313 
0.505249 0.723104 0.471003 -0.850247 -0.0180832 0.526074 -0.851667 -0.12816 0.508171 
0.468143 -0.222134 -0.855277 0.0310981 -0.854373 -0.518729 -0.244028 -0.8684 -0.431661 
-0.505276 0.535252 0.676906 0.893204 0.432055 -0.12456 -0.948596 -0.0755339 0.307344 
0.823275 0.282079 -0.492594 0.578417 0.449326 -0.680837 -0.895897 -0.32802 0.29962 
0.641092 0.192708 -0.742876 -0.801579 -0.597054 0.0315678 -0.384515 -0.867242 -0.31629 
-0.464182 -0.854874 -0.23179 0.217802 0.705451 0.674464 -0.505215 0.284488 0.814754 
0.736641 0.658262 0.155083 0.801394 0.414199 -0.431517 -0.833954 -0.463511 0.299463 
0.437238 0.3563 -0.825756 -0.785284 -0.582273 0.210448 0.407773 0.0134892 -0.912983 
-0.637622 -0.758912 0.132255 0.143322 -0.326048 -0.934426 -0.335217 -0.942136 0.00301213 
0.0283026 -0.669196 -0.742546 -0.0815326 0.720976 0.688147 0.556026 0.394693 -0.731473 
-0.734267 -0.556676 0.38854 -0.740491 -0.604489 0.293712 0.262687 -0.164043 -0.950834 
-0.619435 -0.719592 0.313829 -0.111116 -0.912692 -0.393251 -0.207563 -0.891696 -0.40224 
-0.34 -0.927216 -0.157065 0.49802 0.667669 0.553349 0.149419 0.775547 0.613352 
-0.288366 0.64217 0.710256 -0.716258 0.0407698 0.696643 0.695635 0.690037 -0.199852 
-0.649048 -0.223145 0.727284 0.707671 0.606559 -0.362337 -0.827857 -0.343836 0.443203 
-0.668772 -0.426165 0.609203 0.552557 0.495431 -0.670245 -0.672043 -0.467901 0.573957 
0.407449 0.382352 -0.829332 0.269267 0.379079 -0.885322 0.176679 -0.097531 -0.979424 
0.36994 0.0930428 -0.924385 -0.505364 -0.831461 0.230825 0.0913533 0.0419058 -0.994936 
0.0119366 -0.273714 -0.961737 0.0709548 -0.377171 -0.923422 -0.162684 -0.735431 -0.65778 
-0.0407274 -0.805409 -0.591319 -0.101851 -0.551262 -0.828092 -0.0835732 0.692165 0.716884 
-0.359888 0.357707 0.861699 0.61899 0.691395 0.372593 0.644125 0.763596 -0.0449809 
0.609982 0.700509 -0.370418 0.584407 0.516218 -0.626089 0.614683 0.783609 -0.090116 
0.539712 0.6562 -0.527363 0.453696 0.613421 -0.646432 -0.499561 -0.448523 0.741125 
0.33125 0.491002 -0.805724 0.222497 0.499714 -0.837127 0.438719 0.549566 -0.710987 
0.425347 0.284726 -0.859075 0.385871 0.673845 -0.630108 0.258022 0.0186888 -0.965958 
0.541353 -0.148125 -0.827645 0.088735 -0.0509427 -0.994752 -0.183498 -0.589273 -0.78682 
-0.304589 -0.828895 -0.469211 -0.188953 -0.977797 -0.0906091 0.312352 -0.664051 -0.679318 
-0.0297079 -0.685014 -0.727924 -0.107585 -0.829161 -0.54856 -0.24784 -0.734742 -0.63145 
-0.0225989 -0.714515 -0.699255 0.168227 -0.90295 -0.39545 -0.033704 -0.831898 -0.553905 
0.0584901 0.539925 0.839679 -0.496051 0.410294 0.76524 0.265736 0.574883 0.773882 
0.382648 0.796322 0.468458 0.622132 0.751921 -0.218099 0.520226 0.728331 -0.445982 
0.405539 0.7322 -0.547194 0.242514 0.615637 -0.749785 0.330547 0.851278 -0.40751 
0.266441 0.724679 -0.635492 -0.387671 -0.772505 0.502939 0.838744 0.534975 -0.101535 
0.830135 0.23817 -0.504134 0.712432 -0.178801 -0.67858 0.914927 -0.154895 -0.372714 
-0.274657 -0.902955 -0.330508 0.686878 -0.519698 -0.508049 0.789094 -0.559816 -0.252857 
0.0315895 -0.885752 -0.463083 0.111284 0.502621 0.857315 -0.229196 0.385989 0.893578 
0.484843 0.688758 0.539017 0.486637 0.872837 -0.0366221 -0.609765 -0.291097 0.73719 
0.454105 0.877821 -0.152377 0.533914 0.748543 -0.393216 0.93229 0.292638 -0.2126 
0.716778 0.668685 -0.197711 -0.268042 -0.956452 0.115552 0.861117 -0.412893 0.296642 
0.561868 -0.817785 -0.12463 0.36108 -0.916352 -0.172978 -0.0228704 -0.999671 0.0115868 
-0.192458 0.446312 0.873937 0.297579 0.591247 0.749583 0.446569 0.883017 0.144417 
0.754292 0.547717 0.362008 0.778217 0.609101 0.152888 -0.512159 -0.571022 0.641582 
0.949965 0.284417 0.129129 0.969954 -0.0343702 0.240848 0.602057 -0.780548 0.168144 
-0.129538 -0.913027 0.386782 -0.21778 -0.960463 0.17344 0.165231 0.47063 0.866722 
-0.332 0.206229 0.92046 0.0198785 0.576139 0.81711 0.547289 0.781676 0.299095 
-0.509364 -0.0416055 0.859545 0.430229 0.804646 0.409204 0.482472 0.875589 -0.0237654 
0.80564 0.352726 0.475951 0.816802 -0.0634965 0.573413 0.675408 -0.509648 0.532994 
-0.357858 -0.858886 0.366406 -0.320038 -0.936027 0.146389 0.376866 -0.700416 0.606127 
0.145601 -0.947131 0.285909 -0.122728 -0.968586 0.216283 -0.0419208 -0.91075 0.410824 
-0.298115 0.0536373 0.953022 0.102582 0.478079 0.872306 -0.371442 -0.160936 0.914402 
0.464035 0.862098 0.203614 0.504673 0.769432 0.39151 0.530275 0.832379 0.161102 
-0.404953 -0.389778 0.827095 0.598093 0.52568 0.604934 0.606775 0.646107 0.463001 
0.569274 0.305371 0.763332 0.599238 0.544128 0.58723 -0.464432 -0.349684 0.813649 
0.605501 -0.11861 0.786957 -0.450409 -0.695759 0.55951 -0.429394 -0.551533 0.715145 
0.528599 -0.458808 0.714198 -0.265214 -0.839526 0.474191 -0.293254 -0.900368 0.321466 
-0.0582557 -0.653237 0.75491 -0.19331 0.391657 0.899576 0.285988 0.611527 0.73773 
0.447326 0.693218 0.56511 0.395382 0.555459 0.731532 0.412769 0.698577 0.584475 
-0.216668 0.0289793 0.975815 0.3973 0.465942 0.790601 0.355844 -0.162013 0.920395 
-0.225576 -0.720246 0.656019 0.348542 -0.584685 0.732573 0.287486 -0.36885 0.883913 
0.253167 -0.609172 0.751542 -0.0964002 -0.520793 0.848222 -0.163449 0.197587 0.966563 
0.0273195 0.165091 0.9859 -0.0411042 0.410633 0.910874 0.312333 0.366792 0.876306 
0.393762 -0.0137931 0.919109 0.147879 -0.244289 0.95836 0.0660564 -0.425019 0.902771 
-0.16909 -0.591903 0.788074 -0.128146 -0.4285 0.894408 0.0382937 -0.579484 0.814083 
-0.0964403 -0.0103101 0.995285 -0.125845 0.107187 0.986242 
